<svg xmlns="http://www.w3.org/2000/svg" xmlns:xlink="http://www.w3.org/1999/xlink" width="1920" height="1080" viewBox="0 0 1920 1080"><defs><style>.cls-1,.cls-11{fill:none;}.cls-2{fill:#00427e;}.cls-3{fill:#9ddcf9;}.cls-3,.cls-5{opacity:0.4;}.cls-4,.cls-6{opacity:0.2;}.cls-4,.cls-5{fill:url(#Jive);}.cls-6{fill:url(#linear-gradient);}.cls-7{opacity:0.21;fill:url(#linear-gradient-2);}.cls-8{fill:#ceaf70;}.cls-9{fill:#242277;}.cls-10{fill:#606060;}.cls-11{stroke:#606060;}.cls-11,.cls-24{stroke-miterlimit:10;}.cls-12{fill:#bfbfbf;}.cls-13{fill:#ffd8b4;}.cls-14{fill:#ffdec0;}.cls-15{fill:#eaeaea;}.cls-16{fill:#a8a8a8;}.cls-17{fill:#f4f4f4;}.cls-18{fill:#fcbc4b;}.cls-19{fill:#797979;}.cls-20{fill:#f2352f;}.cls-21{fill:#d74841;}.cls-22{fill:#fffde8;}.cls-23{fill:#fffa00;}.cls-24{fill:#c9888a;stroke:#000;stroke-width:0.15px;}.cls-25{opacity:0.35;}.cls-26{fill:#51060d;}.cls-27{fill:#ec8080;}.cls-28{fill:#ff9494;}.cls-29{fill:#919191;}.cls-30{fill:#fff;}.cls-31{fill:#fced29;}.cls-32{fill:#603813;}.cls-33{fill:#8c6239;}.cls-34{fill:#1a1a1a;}.cls-35{fill:#ed1c24;}.cls-36{fill:#009640;}.cls-37{fill:#ccc;}.cls-38{fill:#39b54a;}.cls-39{fill:#e6e6e6;}.cls-40{fill:#4d4d4d;}.cls-41{fill:#dd3942;}.cls-42{fill:#a67c52;}.cls-43{fill:#c69c6d;}.cls-44{fill:#f7daa3;}.cls-45{fill:#ffe9b4;}.cls-46{fill:#fbb03b;}.cls-47{fill:#f7931e;}.cls-48{fill:#666;}.cls-49{fill:#f15a24;}.cls-50{fill:#c1272d;}</style><pattern id="Jive" data-name="Jive" width="108.34" height="109.64" patternUnits="userSpaceOnUse" viewBox="0 0 108.34 109.64"><rect class="cls-1" width="108.34" height="109.64"/><path class="cls-2" d="M87.47,144.34a.27.27,0,0,1,.25-.21c12.91-.14,24.75-3.27,34-11.52-8,5.56-22.94,7.51-31.52,3.62a.25.25,0,0,1,.11-.48c10.68.29,19.28-3,26-9-6.87-.42-12.57-4.74-12.55-9.84a.26.26,0,0,1,.2-.25.27.27,0,0,1,.28.14c1.12,2.49,4.75,3.79,8.58,2.88,4.18-1,7-4.18,6.3-7.16-.47-2-2.43-3.4-4.95-3.79a.26.26,0,0,1-.22-.26.27.27,0,0,1,.23-.24,17.53,17.53,0,0,1,3.32,0c6.49.62,11.52,4.6,12,9.18,4.71-.55,8.89-3.16,10.38-6.77a.25.25,0,0,1,.27-.16.26.26,0,0,1,.22.23c.37,4.75-1.26,7.84-5,10.86a21.8,21.8,0,0,1,17.25.53.26.26,0,0,1,.15.28.28.28,0,0,1-.24.21,16.26,16.26,0,0,0-11.74,5.07c18.26-5.13,33.09,6.2,28,23.05a.26.26,0,0,1-.27.18.26.26,0,0,1-.23-.23c-.91-9.71-7.7-16.11-17.86-17.07a17.45,17.45,0,0,1,11.56,15.53.25.25,0,0,1-.19.26.27.27,0,0,1-.3-.14,16.74,16.74,0,0,0-14.16-9.81c6.34,2.58,10.4,8.6,11.57,16.42a.25.25,0,0,1-.17.28.25.25,0,0,1-.3-.13c-3.87-7.58-12.16-12.79-22.45-8.81-10.62,4.11-15.27,16.39-16.3,25a.26.26,0,0,1-.24.22.25.25,0,0,1-.26-.19c-3.72-15.69,3.58-31.95,16.64-38.84-7.1,2-13.44,6.26-17,13.35-8.3,1-14,3.87-16.86,9.24a.25.25,0,0,1-.29.13.27.27,0,0,1-.19-.27c.19-2.11.94-6.33,4.08-8.27-7,0-12.51-.89-17.8-3A.26.26,0,0,1,87.47,144.34ZM117,197.81a.24.24,0,0,0-.31,0,.25.25,0,0,0-.05.31c1.62,2.8.14,6.82-3,6.82-5.72,0-8.47-10.77-7.6-20.59,2.17,5.75,4,8,7.35,10.79a.24.24,0,0,0,.32,0,.25.25,0,0,0,.07-.31,46.53,46.53,0,0,1-5.9-24.09c1.46,6,3.19,9.32,8.13,14.38a.24.24,0,0,0,.32,0,.25.25,0,0,0,.09-.31,44.24,44.24,0,0,1-1-34.27.25.25,0,0,0-.06-.28.26.26,0,0,0-.29,0c-5.2,2.55-8.26,4.23-12.75,10.39,1.36,7.4.23,11.05-3.17,17.2,3.94-9.92,1.84-23.9-8.19-29.6a.25.25,0,0,0-.32.07.26.26,0,0,0,0,.33,17.92,17.92,0,0,1,4.16,17.93c1.53-10.39-7.6-19.12-17.78-19.12-9.6,0-16.15,7.51-15.61,14.94s5.44,11,9.67,12.5a.25.25,0,0,0,.3-.1.26.26,0,0,0,0-.32c-5.61-5.69-6.38-16.49,3.58-19.76-5.86,5.06-3.69,16.83,5.69,17.73a.26.26,0,0,0,.27-.17.27.27,0,0,0-.11-.3,8,8,0,0,1-3.68-6.57c0-4.68,3.43-6.51,5.68-6.51,3.42,0,6.26,3.25,6.26,8.18,0,5.84-5.26,10.68-12,11.43s-12.78-2.15-15.75-6.46a.25.25,0,0,0-.31-.08.24.24,0,0,0-.14.29,17.14,17.14,0,0,0,26.88,9.51c-6.61,7.5-17,7.6-25.72-.09a.26.26,0,0,0-.32,0,.24.24,0,0,0-.07.31c2.66,5.41,9.25,11.82,18.6,10.89,8.56-.86,13.52-9,14.53-15.69.55,8.52-1.4,14.53-8.76,20.14a.25.25,0,0,0-.07.32.26.26,0,0,0,.3.13c6.78-2,12.23-5.43,15-12.55,0,6.17-2.14,12.38-7.53,16.52a.24.24,0,0,0-.07.31.25.25,0,0,0,.29.13c3.46-1,6.17-2.49,8.14-5.18,1.31,11.1,6.52,17.69,12.53,17.69,4.12,0,7.2-3,7.2-7.87A11.36,11.36,0,0,0,117,197.81Zm99.23-91.62c-3.17-3.91-9.54-5.4-16.44-4a22.71,22.71,0,0,0-1.61-11.49.25.25,0,0,0-.48.12c.37,8.77-4.62,15.85-13.45,18.91,6.91-4.75,8.93-14.19,5.64-19.06a.25.25,0,0,0-.31-.09.25.25,0,0,0-.15.28c.37,2.06-.61,4.68-2.72,6.72-2.9,2.82-6.84,3.45-8.81,1.43s-1.19-6,1.71-8.76A9.58,9.58,0,0,1,183,88.08a.28.28,0,0,0,.17-.28.26.26,0,0,0-.23-.22c-6.39-.55-10.77,3.25-13.52,7.88s-7.57,8.41-13.21,7.67a.26.26,0,0,0-.27.17.24.24,0,0,0,.11.3,11,11,0,0,0,9.86,1.05c-5.79,4.91-14.05,7.74-21.84,5.23a.25.25,0,0,0-.29.1.26.26,0,0,0,0,.31c5.9,6.57,17.69,6.7,25.11,1.37-3,4.32-7.07,7.49-14.3,8.48a.28.28,0,0,0-.22.23.26.26,0,0,0,.17.26c8.29,3.08,16.6,0,23.44-8.21a26.35,26.35,0,0,1-14.76,14,.25.25,0,0,0-.17.28.26.26,0,0,0,.25.21c3.94.08,7.48-.86,12.26-3.57C172.1,129,172.87,139,178,145.61a.27.27,0,0,0,.3.08.26.26,0,0,0,.15-.28c-1.18-7.2,1.3-15.33,5.61-19.64a18.18,18.18,0,0,0,5.9,19.64.26.26,0,0,0,.25.05.28.28,0,0,0,.17-.21c1.23-9.41,11.77-19,20.6-19.77a.25.25,0,0,0,0-.5,20.83,20.83,0,0,0-12.39,1,21.87,21.87,0,0,1,9.56-6.25.25.25,0,0,0-.06-.49,20.37,20.37,0,0,0-12.73,3.54A31.44,31.44,0,0,1,214.8,109.3.25.25,0,0,0,215,109a.24.24,0,0,0-.22-.24c-11.92-1.3-21.75,3.32-28.22,11.92,1.64-4.9,6.36-9.76,12.94-12.62,5.85-2.55,11.85-2.95,16.42-1.51a.27.27,0,0,0,.29-.1A.26.26,0,0,0,216.19,106.19Zm-52.91,75.57c4.81-10.49,4.47-18.69.6-29a.26.26,0,0,0-.5.1c.63,12.62-2.82,21.65-10.29,27.8,8.25-9.85,4.35-29.56-8.83-29.56-9.58,0-17.51,8-19.45,17.53a.25.25,0,0,0,.16.29.26.26,0,0,0,.31-.11c2.84-4.76,7.4-7.85,12.45-7.85,8.14,0,10.54,6.46,10.54,11,0,6.18-4.92,11.34-8.7,11.34a4.93,4.93,0,0,1-5-4.93,8.86,8.86,0,0,1,6.37-8.16.26.26,0,0,0,.18-.28.25.25,0,0,0-.25-.22,10.47,10.47,0,0,0-9.63,5.57,17.4,17.4,0,0,1,.64-7.72.25.25,0,0,0-.12-.3.25.25,0,0,0-.32.07c-7.36,9.39-3.84,25.62,2,32.35-5.53-4-10.42-12.63-10.34-24.39a.25.25,0,0,0-.21-.25.24.24,0,0,0-.28.15c-4.11,10.26-1.93,29.25,9.28,39.86a20.19,20.19,0,0,1-9.12-.7.27.27,0,0,0-.3.12.25.25,0,0,0,.06.32c4.09,3.46,9.81,4.54,15.26,4.54-4.69-5.5-3.13-16.55,4.36-16.55,5.35,0,7.77,8.3,3.64,12.78a.27.27,0,0,0,0,.31.25.25,0,0,0,.3.1c4.78-1.65,9.94-5.79,9.94-11,0-5-4.81-9.39-11.8-9.05,8.82-2.5,18,.27,22.88,6.26a.25.25,0,0,0,.31.06.24.24,0,0,0,.13-.29c-2.79-10.71-12-15.2-23.43-13.7,9.28-3.76,23.25-.48,29.42,7.31a.25.25,0,0,0,.3.07.26.26,0,0,0,.15-.28C172.53,188.66,169,183.71,163.28,181.76Z"/><path class="cls-3" d="M189.67,162.47a.27.27,0,0,1-.25.21c-12.91.14-24.75,3.27-34,11.52,8-5.56,22.94-7.51,31.53-3.62a.28.28,0,0,1,.14.29.27.27,0,0,1-.26.19c-10.68-.29-19.28,3-26,9,6.87.42,12.57,4.74,12.55,9.84a.26.26,0,0,1-.2.25A.26.26,0,0,1,173,190c-1.12-2.48-4.75-3.78-8.58-2.88-4.18,1-7,4.19-6.3,7.17.47,2,2.43,3.4,5,3.79a.26.26,0,0,1,.22.25.27.27,0,0,1-.23.25,17.53,17.53,0,0,1-3.32,0c-6.49-.62-11.51-4.6-11.95-9.18-4.71.55-8.88,3.16-10.38,6.77a.25.25,0,0,1-.49-.07c-.37-4.75,1.26-7.84,5-10.86a21.8,21.8,0,0,1-17.25-.53.26.26,0,0,1,.1-.49,16.26,16.26,0,0,0,11.73-5.07c-18.26,5.13-33.09-6.2-28-23.05a.26.26,0,0,1,.27-.18.26.26,0,0,1,.23.23c.91,9.71,7.7,16.11,17.86,17.07a17.45,17.45,0,0,1-11.56-15.53.25.25,0,0,1,.19-.26.26.26,0,0,1,.3.14,16.74,16.74,0,0,0,14.16,9.81c-6.34-2.58-10.4-8.6-11.57-16.42a.25.25,0,0,1,.17-.28.25.25,0,0,1,.3.13c3.87,7.58,12.16,12.79,22.45,8.81,10.62-4.11,15.27-16.39,16.3-25a.28.28,0,0,1,.24-.23.27.27,0,0,1,.26.2c3.72,15.69-3.58,31.95-16.63,38.84,7.09-2,13.44-6.26,17-13.35,8.3-1,14-3.87,16.86-9.24a.25.25,0,0,1,.29-.13.27.27,0,0,1,.19.27c-.19,2.11-.95,6.33-4.08,8.27,7,0,12.51.89,17.8,3A.26.26,0,0,1,189.67,162.47ZM160.18,109a.26.26,0,0,0,.32,0,.27.27,0,0,0,0-.32c-1.62-2.79-.14-6.81,3.05-6.81,5.72,0,8.47,10.77,7.6,20.59-2.16-5.75-4-8-7.35-10.79a.24.24,0,0,0-.32,0,.23.23,0,0,0-.06.31,46.61,46.61,0,0,1,5.89,24.09c-1.46-6-3.19-9.32-8.13-14.38a.24.24,0,0,0-.32,0,.25.25,0,0,0-.09.31,44.22,44.22,0,0,1,.95,34.26.28.28,0,0,0,.06.29.28.28,0,0,0,.29,0c5.2-2.55,8.26-4.23,12.75-10.39-1.36-7.4-.23-11.05,3.17-17.19-3.94,9.91-1.84,23.89,8.19,29.58a.24.24,0,0,0,.32-.06.26.26,0,0,0,0-.33,17.93,17.93,0,0,1-4.16-17.93c-1.53,10.39,7.6,19.12,17.78,19.12,9.6,0,16.15-7.51,15.61-14.94s-5.44-11-9.67-12.5a.25.25,0,0,0-.3.1.24.24,0,0,0,0,.31c5.61,5.7,6.38,16.5-3.58,19.76,5.86-5,3.69-16.82-5.69-17.72a.26.26,0,0,0-.27.17.28.28,0,0,0,.11.3,8,8,0,0,1,3.68,6.57c0,4.67-3.43,6.51-5.68,6.51-3.42,0-6.26-3.25-6.26-8.18,0-5.84,5.26-10.68,12-11.43s12.78,2.15,15.75,6.46a.25.25,0,0,0,.31.08.24.24,0,0,0,.14-.29A17.14,17.14,0,0,0,189.47,125c6.61-7.5,17-7.6,25.72.09a.26.26,0,0,0,.32,0,.25.25,0,0,0,.07-.32c-2.66-5.4-9.25-11.81-18.6-10.88-8.56.86-13.52,9-14.53,15.69-.55-8.52,1.4-14.53,8.76-20.14a.26.26,0,0,0,.07-.32.26.26,0,0,0-.3-.13c-6.78,2-12.23,5.43-15,12.54,0-6.16,2.14-12.37,7.53-16.51a.24.24,0,0,0,.07-.31.25.25,0,0,0-.29-.13c-3.46,1-6.17,2.49-8.14,5.18-1.31-11.1-6.52-17.69-12.53-17.69-4.12,0-7.2,3-7.2,7.87A11.36,11.36,0,0,0,160.18,109ZM61,200.62c3.17,3.91,9.54,5.39,16.43,4A22.7,22.7,0,0,0,79,216.1a.26.26,0,0,0,.29.13.26.26,0,0,0,.19-.26c-.37-8.76,4.62-15.84,13.45-18.9C86,201.82,84,211.26,87.29,216.13a.25.25,0,0,0,.31.09.25.25,0,0,0,.15-.28c-.37-2.06.61-4.68,2.71-6.72,2.91-2.82,6.85-3.45,8.82-1.43s1.19,6-1.71,8.76a9.58,9.58,0,0,1-3.45,2.18A.28.28,0,0,0,94,219a.26.26,0,0,0,.23.22c6.39.55,10.77-3.26,13.52-7.88s7.57-8.41,13.21-7.67a.26.26,0,0,0,.27-.17.24.24,0,0,0-.11-.3,11,11,0,0,0-9.86-1.05c5.79-4.91,14.05-7.74,21.84-5.23a.27.27,0,0,0,.29-.1.26.26,0,0,0,0-.31c-5.9-6.57-17.69-6.7-25.1-1.37,3-4.32,7.06-7.49,14.29-8.48a.28.28,0,0,0,.22-.23.26.26,0,0,0-.17-.26c-8.29-3.08-16.6,0-23.44,8.21a26.35,26.35,0,0,1,14.76-14,.25.25,0,0,0,.17-.28.26.26,0,0,0-.25-.21c-3.94-.08-7.48.86-12.26,3.57,3.51-5.69,2.74-15.64-2.37-22.26a.27.27,0,0,0-.3-.08.26.26,0,0,0-.15.28c1.18,7.2-1.3,15.33-5.61,19.64a18.18,18.18,0,0,0-5.9-19.64.26.26,0,0,0-.25-.05.27.27,0,0,0-.17.2c-1.23,9.42-11.77,19-20.6,19.78a.25.25,0,0,0,0,.5,20.83,20.83,0,0,0,12.39-1A21.76,21.76,0,0,1,69,187a.26.26,0,0,0-.17.28.25.25,0,0,0,.23.22A20.39,20.39,0,0,0,81.77,184a31.44,31.44,0,0,1-19.43,13.51.25.25,0,0,0-.19.26.26.26,0,0,0,.22.24c11.92,1.3,21.75-3.32,28.22-11.92-1.64,4.9-6.36,9.76-12.94,12.62-5.85,2.54-11.85,2.95-16.42,1.51a.27.27,0,0,0-.29.1A.25.25,0,0,0,61,200.62Zm52.91-75.57c-4.81,10.49-4.47,18.68-.6,29.05a.26.26,0,0,0,.5-.1c-.63-12.62,2.82-21.65,10.29-27.8-8.25,9.85-4.35,29.56,8.83,29.56,9.58,0,17.51-8,19.45-17.53a.25.25,0,0,0-.16-.29.24.24,0,0,0-.3.11c-2.85,4.76-7.41,7.85-12.46,7.85-8.14,0-10.54-6.46-10.54-11,0-6.18,4.92-11.34,8.7-11.34a4.94,4.94,0,0,1,5.05,4.93,8.88,8.88,0,0,1-6.38,8.16.25.25,0,0,0-.18.28.26.26,0,0,0,.25.22,10.48,10.48,0,0,0,9.63-5.57,17.4,17.4,0,0,1-.64,7.72.25.25,0,0,0,.12.3.25.25,0,0,0,.32-.07c7.36-9.39,3.84-25.62-2-32.35,5.53,4,10.42,12.63,10.34,24.39a.26.26,0,0,0,.49.1c4.11-10.26,1.93-29.25-9.28-39.86a20.19,20.19,0,0,1,9.12.7.27.27,0,0,0,.3-.12.25.25,0,0,0-.06-.32c-4.09-3.45-9.81-4.54-15.26-4.54,4.7,5.5,3.13,16.55-4.36,16.55-5.34,0-7.77-8.3-3.64-12.78a.27.27,0,0,0,0-.31.25.25,0,0,0-.3-.1c-4.77,1.65-9.94,5.79-9.94,11,0,5,4.81,9.39,11.8,9-8.82,2.5-18.05-.27-22.88-6.26a.25.25,0,0,0-.44.23c2.79,10.71,12,15.2,23.44,13.7-9.29,3.76-23.25.49-29.43-7.31a.26.26,0,0,0-.31-.07.27.27,0,0,0-.14.28C104.61,118.15,108.1,123.09,113.86,125.05Z"/><path class="cls-2" d="M-20.86,144.34a.25.25,0,0,1,.24-.21c12.91-.14,24.76-3.27,34-11.52-8,5.56-22.94,7.51-31.52,3.62a.27.27,0,0,1-.15-.29.26.26,0,0,1,.26-.19c10.68.29,19.28-3,26-9-6.87-.42-12.57-4.74-12.55-9.84a.26.26,0,0,1,.2-.25.27.27,0,0,1,.28.14c1.12,2.49,4.75,3.79,8.58,2.88,4.18-1,7-4.18,6.3-7.16-.47-2-2.43-3.4-4.95-3.79a.25.25,0,0,1,0-.5,17.43,17.43,0,0,1,3.31,0c6.49.62,11.52,4.6,12,9.18,4.71-.55,8.89-3.16,10.38-6.77a.26.26,0,0,1,.28-.16.27.27,0,0,1,.21.23c.38,4.75-1.26,7.84-5,10.86a21.8,21.8,0,0,1,17.25.53.26.26,0,0,1,.15.28.28.28,0,0,1-.24.21,16.22,16.22,0,0,0-11.73,5.07c18.25-5.13,33.08,6.2,28,23.05a.26.26,0,0,1-.27.18.26.26,0,0,1-.23-.23c-.91-9.71-7.7-16.11-17.86-17.07a17.45,17.45,0,0,1,11.56,15.53.25.25,0,0,1-.48.12,16.77,16.77,0,0,0-14.16-9.81c6.33,2.58,10.39,8.6,11.57,16.42a.26.26,0,0,1-.18.28A.25.25,0,0,1,50,156c-3.87-7.58-12.16-12.79-22.45-8.81-10.61,4.11-15.27,16.39-16.3,25a.26.26,0,0,1-.24.22.25.25,0,0,1-.26-.19C7,156.6,14.32,140.34,27.38,133.45c-7.1,2-13.44,6.26-17,13.35-8.29,1-14,3.87-16.86,9.24a.25.25,0,0,1-.29.13A.27.27,0,0,1-7,155.9c.19-2.11,1-6.33,4.08-8.27-7,0-12.51-.89-17.8-3A.24.24,0,0,1-20.86,144.34ZM8.62,197.81a.24.24,0,0,0-.31,0,.25.25,0,0,0-.05.31c1.62,2.8.14,6.82-3,6.82-5.72,0-8.47-10.77-7.6-20.59,2.17,5.75,4,8,7.35,10.79a.24.24,0,0,0,.32,0,.24.24,0,0,0,.07-.31,46.53,46.53,0,0,1-5.9-24.09c1.46,6,3.2,9.32,8.13,14.38a.24.24,0,0,0,.32,0,.25.25,0,0,0,.09-.31,44.29,44.29,0,0,1-1-34.27.25.25,0,0,0-.06-.28.26.26,0,0,0-.29,0c-5.2,2.55-8.26,4.23-12.75,10.39,1.36,7.4.23,11.05-3.17,17.2,3.94-9.92,1.84-23.9-8.19-29.6a.25.25,0,0,0-.32.07.26.26,0,0,0,0,.33,17.88,17.88,0,0,1,4.16,17.93c1.53-10.39-7.59-19.12-17.78-19.12-9.6,0-16.15,7.51-15.61,14.94s5.45,11,9.67,12.5a.25.25,0,0,0,.3-.1.26.26,0,0,0,0-.32c-5.61-5.69-6.38-16.49,3.58-19.76-5.86,5.06-3.69,16.83,5.69,17.73a.26.26,0,0,0,.27-.17.26.26,0,0,0-.11-.3,8,8,0,0,1-3.67-6.57c0-4.68,3.42-6.51,5.67-6.51,3.42,0,6.26,3.25,6.26,8.18,0,5.84-5.26,10.68-12,11.43s-12.78-2.15-15.75-6.46a.25.25,0,0,0-.31-.08.25.25,0,0,0-.14.29,17.15,17.15,0,0,0,26.89,9.51c-6.62,7.5-17,7.6-25.73-.09a.26.26,0,0,0-.32,0,.24.24,0,0,0-.07.31c2.66,5.41,9.25,11.82,18.6,10.89,8.56-.86,13.52-9,14.53-15.69.55,8.52-1.4,14.53-8.76,20.14a.28.28,0,0,0-.07.32.26.26,0,0,0,.3.13c6.78-2,12.23-5.43,15.05-12.55,0,6.17-2.14,12.38-7.53,16.52a.24.24,0,0,0-.07.31.25.25,0,0,0,.29.13c3.46-1,6.18-2.49,8.14-5.18C-5,208.11.22,214.7,6.23,214.7c4.12,0,7.2-3,7.2-7.87A11.36,11.36,0,0,0,8.62,197.81Zm99.23-91.62c-3.16-3.91-9.54-5.4-16.43-4a22.82,22.82,0,0,0-1.61-11.49.28.28,0,0,0-.3-.13.26.26,0,0,0-.19.25c.38,8.77-4.62,15.85-13.45,18.91,6.91-4.75,8.93-14.19,5.64-19.06a.25.25,0,0,0-.46.19c.37,2.06-.61,4.68-2.71,6.72-2.91,2.82-6.85,3.45-8.81,1.43s-1.2-6,1.7-8.76a9.58,9.58,0,0,1,3.45-2.18.26.26,0,0,0,.17-.28.26.26,0,0,0-.23-.22C68.23,87,63.85,90.83,61.1,95.46s-7.57,8.41-13.21,7.67a.26.26,0,0,0-.27.17.26.26,0,0,0,.11.3,11,11,0,0,0,9.86,1.05c-5.79,4.91-14,7.74-21.84,5.23a.25.25,0,0,0-.29.1.26.26,0,0,0,0,.31c5.91,6.57,17.69,6.7,25.11,1.37-3,4.32-7.07,7.49-14.3,8.48a.26.26,0,0,0-.21.23.24.24,0,0,0,.16.26c8.29,3.08,16.6,0,23.44-8.21a26.35,26.35,0,0,1-14.76,14,.25.25,0,0,0-.17.28.26.26,0,0,0,.25.21c3.94.08,7.49-.86,12.26-3.57-3.5,5.69-2.74,15.64,2.37,22.26a.28.28,0,0,0,.31.08.26.26,0,0,0,.14-.28c-1.17-7.2,1.3-15.33,5.61-19.64a18.18,18.18,0,0,0,5.9,19.64.27.27,0,0,0,.26.05.29.29,0,0,0,.16-.21c1.23-9.41,11.77-19,20.6-19.77a.25.25,0,0,0,0-.5,20.83,20.83,0,0,0-12.39,1,21.87,21.87,0,0,1,9.56-6.25.25.25,0,0,0,.18-.27.27.27,0,0,0-.24-.22A20.39,20.39,0,0,0,87,122.81a31.44,31.44,0,0,1,19.43-13.51.27.27,0,0,0,.2-.26.26.26,0,0,0-.23-.24c-11.92-1.3-21.75,3.32-28.22,11.92,1.65-4.9,6.36-9.76,12.94-12.62,5.85-2.55,11.85-2.95,16.43-1.51a.25.25,0,0,0,.27-.4ZM54.94,181.76c4.81-10.49,4.47-18.69.6-29a.27.27,0,0,0-.29-.17.26.26,0,0,0-.2.27c.62,12.62-2.83,21.65-10.3,27.8,8.25-9.85,4.35-29.56-8.83-29.56-9.58,0-17.51,8-19.45,17.53a.26.26,0,0,0,.47.18c2.84-4.76,7.41-7.85,12.45-7.85,8.14,0,10.54,6.46,10.54,11,0,6.18-4.92,11.34-8.7,11.34a4.93,4.93,0,0,1-5-4.93,8.86,8.86,0,0,1,6.37-8.16.26.26,0,0,0,.18-.28.25.25,0,0,0-.25-.22,10.48,10.48,0,0,0-9.63,5.57,17.4,17.4,0,0,1,.64-7.72.24.24,0,0,0-.12-.3.25.25,0,0,0-.32.07c-7.35,9.39-3.83,25.62,2,32.35-5.53-4-10.42-12.63-10.34-24.39a.25.25,0,0,0-.2-.25.26.26,0,0,0-.29.15C10.1,185.4,12.28,204.39,23.49,215a20.2,20.2,0,0,1-9.12-.7.27.27,0,0,0-.3.12.25.25,0,0,0,.06.32c4.09,3.46,9.81,4.54,15.26,4.54-4.69-5.5-3.13-16.55,4.36-16.55,5.35,0,7.77,8.3,3.65,12.78a.26.26,0,0,0,0,.31.25.25,0,0,0,.3.1c4.78-1.65,9.94-5.79,9.94-11,0-5-4.81-9.39-11.8-9.05,8.82-2.5,18,.27,22.88,6.26a.26.26,0,0,0,.45-.23c-2.8-10.71-12-15.2-23.44-13.7,9.28-3.76,23.25-.48,29.42,7.31a.26.26,0,0,0,.31.07.27.27,0,0,0,.14-.28C64.2,188.66,60.7,183.71,54.94,181.76Z"/><path class="cls-3" d="M81.33,162.47a.26.26,0,0,1-.25.21c-12.91.14-24.75,3.27-34,11.52,8-5.56,22.94-7.51,31.53-3.62a.25.25,0,0,1,.14.29.26.26,0,0,1-.26.19c-10.68-.29-19.27,3-26,9,6.87.42,12.57,4.74,12.56,9.84a.26.26,0,0,1-.49.1c-1.12-2.48-4.75-3.78-8.58-2.88-4.18,1-7,4.19-6.3,7.17.47,2,2.44,3.4,5,3.79a.25.25,0,0,1,0,.5,17.53,17.53,0,0,1-3.32,0c-6.49-.62-11.51-4.6-12-9.18-4.71.55-8.88,3.16-10.38,6.77a.25.25,0,0,1-.49-.07c-.37-4.75,1.26-7.84,5-10.86a21.8,21.8,0,0,1-17.25-.53.27.27,0,0,1-.14-.29.26.26,0,0,1,.24-.2,16.24,16.24,0,0,0,11.73-5.07C9.82,184.25-5,172.92.12,156.07a.26.26,0,0,1,.27-.18.26.26,0,0,1,.23.23c.92,9.71,7.7,16.11,17.86,17.07A17.45,17.45,0,0,1,6.92,157.66a.27.27,0,0,1,.19-.26.26.26,0,0,1,.3.14,16.75,16.75,0,0,0,14.16,9.81c-6.34-2.58-10.4-8.6-11.57-16.42a.25.25,0,0,1,.17-.28.25.25,0,0,1,.3.13c3.87,7.58,12.16,12.79,22.45,8.81,10.62-4.11,15.27-16.39,16.3-25a.28.28,0,0,1,.24-.23.26.26,0,0,1,.26.2c3.72,15.69-3.58,31.95-16.63,38.84,7.09-2,13.44-6.26,17-13.35,8.3-1,14-3.87,16.86-9.24a.26.26,0,0,1,.3-.13.27.27,0,0,1,.18.27c-.18,2.11-.94,6.33-4.08,8.27,7,0,12.51.89,17.8,3A.26.26,0,0,1,81.33,162.47ZM51.84,109a.26.26,0,0,0,.32,0,.27.27,0,0,0,0-.32c-1.62-2.79-.14-6.81,3-6.81,5.72,0,8.47,10.77,7.6,20.59-2.16-5.75-4-8-7.35-10.79a.24.24,0,0,0-.32,0,.23.23,0,0,0-.06.31A46.61,46.61,0,0,1,61,136.05c-1.46-6-3.19-9.32-8.12-14.38a.26.26,0,0,0-.33,0,.25.25,0,0,0-.09.31,44.22,44.22,0,0,1,1,34.26.28.28,0,0,0,.06.29.28.28,0,0,0,.29,0C59,154,62,152.31,66.52,146.15c-1.36-7.4-.23-11.05,3.17-17.19-3.94,9.91-1.84,23.89,8.19,29.58a.24.24,0,0,0,.32-.06.25.25,0,0,0,0-.33A17.93,17.93,0,0,1,74,140.22c-1.53,10.39,7.6,19.12,17.78,19.12,9.6,0,16.15-7.51,15.61-14.94s-5.44-11-9.67-12.5a.25.25,0,0,0-.3.1.26.26,0,0,0,0,.31c5.61,5.7,6.38,16.5-3.58,19.76,5.86-5,3.69-16.82-5.69-17.72a.24.24,0,0,0-.26.17.26.26,0,0,0,.1.3,8,8,0,0,1,3.68,6.57c0,4.67-3.42,6.51-5.68,6.51-3.42,0-6.26-3.25-6.26-8.18,0-5.84,5.26-10.68,12-11.43s12.78,2.15,15.75,6.46a.26.26,0,0,0,.32.08.25.25,0,0,0,.14-.29A17.15,17.15,0,0,0,81.13,125c6.61-7.5,17-7.6,25.72.09a.26.26,0,0,0,.32,0,.27.27,0,0,0,.08-.32c-2.67-5.4-9.26-11.81-18.61-10.88-8.56.86-13.52,9-14.52,15.69-.56-8.52,1.39-14.53,8.75-20.14a.26.26,0,0,0-.22-.45c-6.79,2-12.23,5.43-15.05,12.54,0-6.16,2.14-12.37,7.52-16.51a.24.24,0,0,0,.07-.31.24.24,0,0,0-.29-.13c-3.45,1-6.17,2.49-8.14,5.18-1.31-11.1-6.52-17.69-12.52-17.69-4.13,0-7.21,3-7.21,7.87A11.36,11.36,0,0,0,51.84,109Zm-99.23,91.62c3.17,3.91,9.54,5.39,16.44,4a22.71,22.71,0,0,0,1.61,11.49.26.26,0,0,0,.29.13.24.24,0,0,0,.19-.26c-.37-8.76,4.62-15.84,13.45-18.9-6.91,4.75-8.92,14.19-5.64,19.06a.25.25,0,0,0,.31.09.25.25,0,0,0,.15-.28c-.37-2.06.61-4.68,2.72-6.72,2.9-2.82,6.85-3.45,8.81-1.43s1.19,6-1.71,8.76a9.58,9.58,0,0,1-3.45,2.18.28.28,0,0,0-.17.28.26.26,0,0,0,.23.22c6.39.55,10.77-3.26,13.52-7.88s7.57-8.41,13.21-7.67a.26.26,0,0,0,.27-.17.24.24,0,0,0-.11-.3,11,11,0,0,0-9.86-1.05c5.8-4.91,14.05-7.74,21.84-5.23a.27.27,0,0,0,.29-.1.27.27,0,0,0,0-.31c-5.91-6.57-17.69-6.7-25.11-1.37,3-4.32,7.06-7.49,14.29-8.48a.28.28,0,0,0,.22-.23.26.26,0,0,0-.17-.26c-8.29-3.08-16.6,0-23.44,8.21a26.34,26.34,0,0,1,14.77-14,.26.26,0,0,0,.16-.28.25.25,0,0,0-.25-.21c-3.94-.08-7.48.86-12.26,3.57,3.51-5.69,2.74-15.64-2.37-22.26a.27.27,0,0,0-.3-.08.26.26,0,0,0-.15.28c1.18,7.2-1.3,15.33-5.61,19.64a18.18,18.18,0,0,0-5.9-19.64.26.26,0,0,0-.25-.05.27.27,0,0,0-.17.2c-1.23,9.42-11.77,19-20.6,19.78a.26.26,0,0,0-.23.24.26.26,0,0,0,.2.26,20.83,20.83,0,0,0,12.39-1A21.76,21.76,0,0,1-39.36,187a.26.26,0,0,0-.17.28.25.25,0,0,0,.23.22A20.37,20.37,0,0,0-26.57,184,31.44,31.44,0,0,1-46,197.51a.25.25,0,0,0-.19.26A.27.27,0,0,0-46,198c11.92,1.3,21.75-3.32,28.22-11.92-1.64,4.9-6.36,9.76-12.94,12.62-5.85,2.54-11.85,2.95-16.42,1.51a.27.27,0,0,0-.29.1A.25.25,0,0,0-47.39,200.62ZM5.52,125.05c-4.81,10.49-4.47,18.68-.6,29.05a.26.26,0,0,0,.5-.1c-.62-12.62,2.82-21.65,10.3-27.8-8.25,9.85-4.36,29.56,8.82,29.56,9.58,0,17.51-8,19.45-17.53a.26.26,0,0,0-.15-.29.25.25,0,0,0-.31.11c-2.85,4.76-7.41,7.85-12.46,7.85-8.14,0-10.54-6.46-10.54-11,0-6.18,4.92-11.34,8.71-11.34a4.94,4.94,0,0,1,5,4.93,8.88,8.88,0,0,1-6.38,8.16.25.25,0,0,0-.18.28.26.26,0,0,0,.25.22,10.48,10.48,0,0,0,9.63-5.57A17.4,17.4,0,0,1,37,139.3a.25.25,0,0,0,.13.3.24.24,0,0,0,.31-.07c7.36-9.39,3.84-25.62-2-32.35,5.53,4,10.42,12.63,10.34,24.39a.26.26,0,0,0,.21.25.25.25,0,0,0,.28-.15c4.11-10.26,1.93-29.25-9.28-39.86a20.19,20.19,0,0,1,9.12.7.26.26,0,0,0,.3-.12.26.26,0,0,0,0-.32c-4.1-3.45-9.82-4.54-15.27-4.54,4.7,5.5,3.14,16.55-4.35,16.55-5.35,0-7.78-8.3-3.65-12.78a.24.24,0,0,0,0-.31.24.24,0,0,0-.29-.1c-4.78,1.65-10,5.79-10,11,0,5,4.81,9.39,11.8,9-8.82,2.5-18-.27-22.88-6.26a.25.25,0,0,0-.44.23c2.79,10.71,12,15.2,23.44,13.7-9.28,3.76-23.25.49-29.43-7.31a.25.25,0,0,0-.3-.07.24.24,0,0,0-.14.28C-3.73,118.15-.24,123.09,5.52,125.05Z"/><path class="cls-2" d="M87.47,34.69a.27.27,0,0,1,.25-.2c12.91-.14,24.75-3.27,34-11.52-8,5.56-22.94,7.51-31.52,3.62A.26.26,0,0,1,90,26.3a.25.25,0,0,1,.26-.19c10.68.29,19.28-3,26-9-6.87-.42-12.57-4.74-12.55-9.84a.26.26,0,0,1,.2-.25.24.24,0,0,1,.28.14c1.12,2.49,4.75,3.78,8.58,2.88,4.18-1,7-4.19,6.3-7.16-.47-2-2.43-3.41-4.95-3.79a.26.26,0,0,1-.22-.26.27.27,0,0,1,.23-.24,17.53,17.53,0,0,1,3.32,0c6.49.62,11.52,4.6,12,9.18,4.71-.55,8.89-3.16,10.38-6.78a.26.26,0,0,1,.49.08c.37,4.75-1.26,7.84-5,10.86a21.8,21.8,0,0,1,17.25.53.26.26,0,0,1,.15.28.28.28,0,0,1-.24.21,16.26,16.26,0,0,0-11.74,5.07c18.26-5.14,33.09,6.2,28,23.05a.26.26,0,0,1-.27.18.26.26,0,0,1-.23-.23c-.91-9.71-7.7-16.12-17.86-17.08a17.47,17.47,0,0,1,11.56,15.54.25.25,0,0,1-.19.26.27.27,0,0,1-.3-.14,16.72,16.72,0,0,0-14.16-9.81c6.34,2.58,10.4,8.6,11.57,16.42a.25.25,0,0,1-.17.28.25.25,0,0,1-.3-.13c-3.87-7.58-12.16-12.79-22.45-8.81-10.62,4.11-15.27,16.39-16.3,25a.27.27,0,0,1-.24.22.25.25,0,0,1-.26-.19C115.36,47,122.66,30.7,135.72,23.81c-7.1,2-13.44,6.26-17,13.35-8.3,1-14,3.86-16.86,9.24a.25.25,0,0,1-.29.13.27.27,0,0,1-.19-.27c.19-2.11.94-6.33,4.08-8.27-7,0-12.51-.89-17.8-3A.28.28,0,0,1,87.47,34.69ZM117,88.17a.24.24,0,0,0-.31,0,.25.25,0,0,0-.05.31c1.62,2.8.14,6.82-3,6.82-5.72,0-8.47-10.77-7.6-20.6,2.17,5.76,4,8.06,7.35,10.8a.24.24,0,0,0,.32,0,.26.26,0,0,0,.07-.32,46.5,46.5,0,0,1-5.9-24.08c1.46,6,3.19,9.32,8.13,14.38a.24.24,0,0,0,.32,0,.25.25,0,0,0,.09-.31,44.24,44.24,0,0,1-1-34.27.24.24,0,0,0-.06-.28.26.26,0,0,0-.29,0c-5.2,2.55-8.26,4.23-12.75,10.39,1.36,7.4.23,11-3.17,17.19,3.94-9.91,1.84-23.89-8.19-29.59a.25.25,0,0,0-.32.07.26.26,0,0,0,0,.33A17.92,17.92,0,0,1,94.77,57C96.3,46.56,87.17,37.83,77,37.83c-9.6,0-16.15,7.51-15.61,14.94s5.44,11,9.67,12.5a.25.25,0,0,0,.3-.1.26.26,0,0,0,0-.32c-5.61-5.69-6.38-16.49,3.58-19.76C69,50.15,71.21,61.92,80.59,62.82a.26.26,0,0,0,.27-.17.27.27,0,0,0-.11-.3,8,8,0,0,1-3.68-6.57c0-4.68,3.43-6.51,5.68-6.51,3.42,0,6.26,3.25,6.26,8.18,0,5.84-5.26,10.68-12,11.43s-12.78-2.15-15.75-6.46a.25.25,0,0,0-.31-.09.26.26,0,0,0-.14.3,17.14,17.14,0,0,0,26.88,9.51c-6.61,7.5-17,7.6-25.72-.09a.26.26,0,0,0-.32,0,.24.24,0,0,0-.07.31c2.66,5.41,9.25,11.82,18.6,10.89,8.56-.86,13.52-9,14.53-15.69.55,8.52-1.4,14.53-8.76,20.14a.25.25,0,0,0-.07.32.26.26,0,0,0,.3.13c6.78-2,12.23-5.43,15-12.55,0,6.16-2.14,12.38-7.53,16.51a.26.26,0,0,0,.22.45c3.46-1,6.17-2.49,8.14-5.19,1.31,11.1,6.52,17.7,12.53,17.7,4.12,0,7.2-3,7.2-7.88A11.35,11.35,0,0,0,117,88.17ZM216.19-3.45c-3.17-3.91-9.54-5.4-16.44-4a22.71,22.71,0,0,0-1.61-11.49.26.26,0,0,0-.29-.14.27.27,0,0,0-.19.26C198-10,193-3,184.21.1c6.91-4.75,8.93-14.19,5.64-19.06a.27.27,0,0,0-.31-.1.26.26,0,0,0-.15.28c.37,2.06-.61,4.69-2.72,6.73-2.9,2.81-6.84,3.45-8.81,1.43s-1.19-6,1.71-8.76A9.75,9.75,0,0,1,183-21.57a.26.26,0,0,0,.17-.27.26.26,0,0,0-.23-.22c-6.39-.55-10.77,3.25-13.52,7.88s-7.57,8.41-13.21,7.67a.24.24,0,0,0-.27.17.24.24,0,0,0,.11.3,11.05,11.05,0,0,0,9.86,1C160.14-.08,151.88,2.75,144.09.24a.25.25,0,0,0-.29.1.26.26,0,0,0,0,.31c5.9,6.56,17.69,6.69,25.11,1.37-3,4.32-7.07,7.49-14.3,8.48a.28.28,0,0,0-.22.22.26.26,0,0,0,.17.27c8.29,3.08,16.6-.05,23.44-8.22a26.34,26.34,0,0,1-14.76,14,.25.25,0,0,0-.17.28.26.26,0,0,0,.25.21c3.94.08,7.48-.86,12.26-3.57C172.1,19.4,172.87,29.35,178,36a.25.25,0,0,0,.3.07.24.24,0,0,0,.15-.27c-1.18-7.2,1.3-15.33,5.61-19.64a18.18,18.18,0,0,0,5.9,19.64.26.26,0,0,0,.25,0,.3.3,0,0,0,.17-.21c1.23-9.42,11.77-19,20.6-19.77a.26.26,0,0,0,.23-.24.25.25,0,0,0-.2-.26,20.83,20.83,0,0,0-12.39,1,21.78,21.78,0,0,1,9.56-6.25.25.25,0,0,0-.06-.49,20.37,20.37,0,0,0-12.73,3.54A31.4,31.4,0,0,1,214.8-.34.25.25,0,0,0,215-.6a.24.24,0,0,0-.22-.24C202.85-2.14,193,2.48,186.55,11.08c1.64-4.9,6.36-9.76,12.94-12.62,5.85-2.55,11.85-2.95,16.42-1.51a.27.27,0,0,0,.29-.1A.25.25,0,0,0,216.19-3.45ZM163.28,72.12c4.81-10.49,4.47-18.69.6-29.06a.28.28,0,0,0-.29-.16.27.27,0,0,0-.21.27c.63,12.62-2.82,21.65-10.29,27.8,8.25-9.85,4.35-29.56-8.83-29.56-9.58,0-17.51,8-19.45,17.53a.24.24,0,0,0,.16.28.26.26,0,0,0,.31-.1c2.84-4.76,7.4-7.85,12.45-7.85,8.14,0,10.54,6.46,10.54,11,0,6.19-4.92,11.35-8.7,11.35a4.94,4.94,0,0,1-5-4.93,8.85,8.85,0,0,1,6.37-8.16.26.26,0,0,0,.18-.28.25.25,0,0,0-.25-.22,10.46,10.46,0,0,0-9.63,5.57,17.45,17.45,0,0,1,.64-7.73.24.24,0,0,0-.12-.29.26.26,0,0,0-.32.06c-7.36,9.4-3.84,25.63,2,32.36C127.85,86,123,77.36,123,65.6a.25.25,0,0,0-.21-.25.24.24,0,0,0-.28.15c-4.11,10.25-1.93,29.25,9.28,39.85a20,20,0,0,1-9.12-.69.26.26,0,0,0-.3.12.25.25,0,0,0,.06.32c4.09,3.45,9.81,4.54,15.26,4.54-4.69-5.5-3.13-16.56,4.36-16.56,5.35,0,7.77,8.3,3.64,12.79a.27.27,0,0,0,0,.31.26.26,0,0,0,.3.1c4.78-1.66,9.94-5.79,9.94-11,0-5-4.81-9.39-11.8-9.05,8.82-2.5,18,.27,22.88,6.25a.25.25,0,0,0,.31.07.24.24,0,0,0,.13-.29c-2.79-10.72-12-15.2-23.43-13.71,9.28-3.75,23.25-.48,29.42,7.31a.24.24,0,0,0,.3.08.26.26,0,0,0,.15-.28C172.53,79,169,74.07,163.28,72.12Z"/><path class="cls-3" d="M189.67,52.83a.27.27,0,0,1-.25.21c-12.91.13-24.75,3.27-34,11.51,8-5.55,22.94-7.51,31.53-3.62a.29.29,0,0,1,.14.29.27.27,0,0,1-.26.2c-10.68-.29-19.28,3-26,9,6.87.43,12.57,4.74,12.55,9.85a.26.26,0,0,1-.2.25.26.26,0,0,1-.28-.15c-1.12-2.49-4.75-3.78-8.58-2.88-4.18,1-7,4.19-6.3,7.17.47,2,2.43,3.4,5,3.79a.24.24,0,0,1,.22.25.27.27,0,0,1-.23.25,18.4,18.4,0,0,1-3.32,0c-6.49-.62-11.51-4.6-11.95-9.18-4.71.54-8.88,3.16-10.38,6.77a.26.26,0,0,1-.27.16.27.27,0,0,1-.22-.24c-.37-4.75,1.26-7.83,5-10.85A21.76,21.76,0,0,1,124.59,75a.24.24,0,0,1-.14-.28.25.25,0,0,1,.24-.2,16.3,16.3,0,0,0,11.73-5.07c-18.26,5.13-33.09-6.2-28-23.05a.26.26,0,0,1,.27-.18.25.25,0,0,1,.23.23c.91,9.71,7.7,16.11,17.86,17.07A17.45,17.45,0,0,1,115.26,48a.27.27,0,0,1,.19-.27.28.28,0,0,1,.3.15,16.74,16.74,0,0,0,14.16,9.81c-6.34-2.58-10.4-8.6-11.57-16.42a.25.25,0,0,1,.17-.28.24.24,0,0,1,.3.13C122.68,48.72,131,53.93,141.26,50c10.62-4.11,15.27-16.39,16.3-25a.25.25,0,0,1,.5,0c3.72,15.69-3.58,32-16.63,38.84,7.09-2,13.44-6.26,17-13.36,8.3-1,14-3.86,16.86-9.24a.26.26,0,0,1,.29-.12.26.26,0,0,1,.19.26c-.19,2.11-.95,6.33-4.08,8.28a45.77,45.77,0,0,1,17.8,3A.26.26,0,0,1,189.67,52.83ZM160.18-.64a.26.26,0,0,0,.32,0,.27.27,0,0,0,0-.32c-1.62-2.79-.14-6.81,3.05-6.81,5.72,0,8.47,10.77,7.6,20.59-2.16-5.75-4-8-7.35-10.79a.24.24,0,0,0-.32,0,.23.23,0,0,0-.06.31,46.61,46.61,0,0,1,5.89,24.09c-1.46-6-3.19-9.32-8.13-14.38a.23.23,0,0,0-.32,0,.25.25,0,0,0-.09.31,44.22,44.22,0,0,1,.95,34.26.26.26,0,0,0,.35.33c5.2-2.55,8.26-4.23,12.75-10.39-1.36-7.4-.23-11,3.17-17.2-3.94,9.92-1.84,23.9,8.19,29.59a.24.24,0,0,0,.32-.06.26.26,0,0,0,0-.33,17.93,17.93,0,0,1-4.16-17.93C180.84,41,190,49.69,200.15,49.69c9.6,0,16.15-7.5,15.61-14.94s-5.44-11-9.67-12.49a.25.25,0,0,0-.3.1.24.24,0,0,0,0,.31c5.61,5.7,6.38,16.5-3.58,19.76,5.86-5,3.69-16.83-5.69-17.72a.26.26,0,0,0-.27.17.26.26,0,0,0,.11.29,8.05,8.05,0,0,1,3.68,6.58c0,4.67-3.43,6.51-5.68,6.51-3.42,0-6.26-3.26-6.26-8.18,0-5.84,5.26-10.68,12-11.43s12.78,2.15,15.75,6.45a.25.25,0,0,0,.45-.2,17.13,17.13,0,0,0-26.88-9.51c6.61-7.5,17-7.61,25.72.09a.26.26,0,0,0,.32,0,.25.25,0,0,0,.07-.32c-2.66-5.4-9.25-11.82-18.6-10.88-8.56.85-13.52,9-14.53,15.69-.55-8.52,1.4-14.54,8.76-20.14a.26.26,0,0,0,.07-.32.25.25,0,0,0-.3-.13c-6.78,2-12.23,5.42-15,12.54,0-6.16,2.14-12.37,7.53-16.51a.24.24,0,0,0,.07-.31.24.24,0,0,0-.29-.13c-3.46,1-6.17,2.49-8.14,5.18-1.31-11.1-6.52-17.69-12.53-17.69-4.12,0-7.2,3-7.2,7.87A11.38,11.38,0,0,0,160.18-.64ZM61,91c3.17,3.9,9.54,5.39,16.43,4A22.64,22.64,0,0,0,79,106.45a.25.25,0,0,0,.29.14.27.27,0,0,0,.19-.26c-.37-8.76,4.62-15.84,13.45-18.91C86,92.18,84,101.62,87.29,106.49a.25.25,0,0,0,.31.09.25.25,0,0,0,.15-.28c-.37-2.06.61-4.68,2.71-6.72,2.91-2.82,6.85-3.46,8.82-1.43s1.19,5.94-1.71,8.76a9.72,9.72,0,0,1-3.45,2.18.27.27,0,0,0-.17.27.25.25,0,0,0,.23.22c6.39.56,10.77-3.25,13.52-7.87s7.57-8.41,13.21-7.67a.26.26,0,0,0,.27-.17.24.24,0,0,0-.11-.3,11,11,0,0,0-9.86-1.06c5.79-4.9,14.05-7.74,21.84-5.22a.26.26,0,0,0,.29-.11.24.24,0,0,0,0-.3c-5.9-6.57-17.69-6.7-25.1-1.38,3-4.31,7.06-7.48,14.29-8.47a.28.28,0,0,0,.22-.23.26.26,0,0,0-.17-.26c-8.29-3.08-16.6,0-23.44,8.21a26.32,26.32,0,0,1,14.76-14,.25.25,0,0,0,.17-.28.26.26,0,0,0-.25-.21c-3.94-.08-7.48.86-12.26,3.57,3.51-5.69,2.74-15.64-2.37-22.26a.27.27,0,0,0-.3-.08.26.26,0,0,0-.15.28c1.18,7.2-1.3,15.32-5.61,19.64a18.2,18.2,0,0,0-5.9-19.65.25.25,0,0,0-.25,0,.27.27,0,0,0-.17.2c-1.23,9.42-11.77,19-20.6,19.78a.26.26,0,0,0-.23.23.26.26,0,0,0,.2.27,20.83,20.83,0,0,0,12.39-1A21.76,21.76,0,0,1,69,77.4a.25.25,0,0,0-.17.27.25.25,0,0,0,.23.23,20.45,20.45,0,0,0,12.73-3.54A31.44,31.44,0,0,1,62.34,87.87a.25.25,0,0,0-.19.26.26.26,0,0,0,.22.24c11.92,1.3,21.75-3.32,28.22-11.92C89,81.35,84.23,86.2,77.65,89.07,71.8,91.61,65.8,92,61.23,90.58a.24.24,0,0,0-.29.1A.26.26,0,0,0,61,91Zm52.91-75.57c-4.81,10.48-4.47,18.68-.6,29.05a.26.26,0,0,0,.5-.1c-.63-12.62,2.82-21.65,10.29-27.81-8.25,9.86-4.35,29.56,8.83,29.56,9.58,0,17.51-8,19.45-17.52a.25.25,0,0,0-.16-.29.24.24,0,0,0-.3.11c-2.85,4.76-7.41,7.85-12.46,7.85-8.14,0-10.54-6.47-10.54-11,0-6.18,4.92-11.34,8.7-11.34a4.94,4.94,0,0,1,5.05,4.92A8.88,8.88,0,0,1,136.24,27a.25.25,0,0,0-.18.28.26.26,0,0,0,.25.22,10.48,10.48,0,0,0,9.63-5.57,17.42,17.42,0,0,1-.64,7.72.25.25,0,0,0,.12.3.25.25,0,0,0,.32-.07c7.36-9.39,3.84-25.62-2-32.36,5.53,4,10.42,12.64,10.34,24.4a.26.26,0,0,0,.21.25.25.25,0,0,0,.28-.16c4.11-10.25,1.93-29.24-9.28-39.85a20.18,20.18,0,0,1,9.12.69.25.25,0,0,0,.3-.11.25.25,0,0,0-.06-.32c-4.09-3.46-9.81-4.54-15.26-4.54,4.7,5.5,3.13,16.55-4.36,16.55-5.34,0-7.77-8.3-3.64-12.78a.27.27,0,0,0,0-.31.25.25,0,0,0-.3-.1c-4.77,1.65-9.94,5.79-9.94,11,0,5.05,4.81,9.4,11.8,9.06-8.82,2.5-18.05-.27-22.88-6.26A.25.25,0,0,0,109.8-5a.24.24,0,0,0-.13.29c2.79,10.71,12,15.2,23.44,13.7-9.29,3.76-23.25.48-29.43-7.31a.26.26,0,0,0-.31-.07.27.27,0,0,0-.14.28C104.61,8.51,108.1,13.45,113.86,15.41Z"/><path class="cls-2" d="M-20.86,34.69a.25.25,0,0,1,.24-.2c12.91-.14,24.76-3.27,34-11.52-8,5.56-22.94,7.51-31.52,3.62a.27.27,0,0,1-.15-.29.25.25,0,0,1,.26-.19c10.68.29,19.28-3,26-9C1.05,16.72-4.65,12.4-4.63,7.3a.26.26,0,0,1,.2-.25.24.24,0,0,1,.28.14C-3,9.68.6,11,4.43,10.07c4.18-1,7-4.19,6.3-7.16C10.26.89,8.3-.5,5.78-.88a.25.25,0,0,1-.21-.26.25.25,0,0,1,.23-.24,17.43,17.43,0,0,1,3.31,0c6.49.62,11.52,4.6,12,9.18C25.77,7.25,30,4.64,31.44,1a.27.27,0,0,1,.28-.15.26.26,0,0,1,.21.23c.38,4.75-1.26,7.84-5,10.86a21.8,21.8,0,0,1,17.25.53.26.26,0,0,1,.15.28.28.28,0,0,1-.24.21,16.22,16.22,0,0,0-11.73,5.07c18.25-5.14,33.08,6.2,28,23.05a.26.26,0,0,1-.27.18.26.26,0,0,1-.23-.23C58.93,31.34,52.14,24.93,42,24A17.47,17.47,0,0,1,53.54,39.51a.25.25,0,0,1-.48.12A16.75,16.75,0,0,0,38.9,29.82c6.33,2.58,10.39,8.6,11.57,16.42a.26.26,0,0,1-.18.28.25.25,0,0,1-.3-.13c-3.87-7.58-12.16-12.79-22.45-8.81-10.61,4.11-15.27,16.39-16.3,25a.27.27,0,0,1-.24.22.25.25,0,0,1-.26-.19C7,47,14.32,30.7,27.38,23.81c-7.1,2-13.44,6.26-17,13.35-8.29,1-14,3.86-16.86,9.24a.25.25,0,0,1-.29.13A.27.27,0,0,1-7,46.26c.19-2.11,1-6.33,4.08-8.27-7,0-12.51-.89-17.8-3A.26.26,0,0,1-20.86,34.69ZM8.62,88.17a.24.24,0,0,0-.31,0,.25.25,0,0,0-.05.31c1.62,2.8.14,6.82-3,6.82-5.72,0-8.47-10.77-7.6-20.6,2.17,5.76,4,8.06,7.35,10.8a.24.24,0,0,0,.32,0,.25.25,0,0,0,.07-.32A46.5,46.5,0,0,1-.55,61.12c1.46,6,3.2,9.32,8.13,14.38a.24.24,0,0,0,.32,0A.25.25,0,0,0,8,75.22,44.29,44.29,0,0,1,7,41,.24.24,0,0,0,7,40.67a.26.26,0,0,0-.29,0C1.49,43.18-1.57,44.86-6.06,51c1.36,7.4.23,11-3.17,17.19,3.94-9.91,1.84-23.89-8.19-29.59a.25.25,0,0,0-.32.07.26.26,0,0,0,0,.33A17.87,17.87,0,0,1-13.57,57C-12,46.56-21.16,37.83-31.35,37.83c-9.6,0-16.15,7.51-15.61,14.94s5.45,11,9.67,12.5a.25.25,0,0,0,.3-.1.26.26,0,0,0,0-.32c-5.61-5.69-6.38-16.49,3.58-19.76-5.86,5.06-3.69,16.83,5.69,17.73a.26.26,0,0,0,.27-.17.26.26,0,0,0-.11-.3,8,8,0,0,1-3.67-6.57c0-4.68,3.42-6.51,5.67-6.51,3.42,0,6.26,3.25,6.26,8.18,0,5.84-5.26,10.68-12,11.43s-12.78-2.15-15.75-6.46a.25.25,0,0,0-.31-.09.27.27,0,0,0-.14.3,17.15,17.15,0,0,0,26.89,9.51c-6.62,7.5-17,7.6-25.73-.09a.26.26,0,0,0-.32,0,.24.24,0,0,0-.07.31c2.66,5.41,9.25,11.82,18.6,10.89,8.56-.86,13.52-9,14.53-15.69.55,8.52-1.4,14.53-8.76,20.14a.28.28,0,0,0-.07.32.26.26,0,0,0,.3.13c6.78-2,12.23-5.43,15.05-12.55,0,6.16-2.14,12.38-7.53,16.51a.25.25,0,0,0-.07.32.25.25,0,0,0,.29.13c3.46-1,6.18-2.49,8.14-5.19C-5,98.46.22,105.06,6.23,105.06c4.12,0,7.2-3,7.2-7.88A11.35,11.35,0,0,0,8.62,88.17ZM107.85-3.45c-3.16-3.91-9.54-5.4-16.43-4a22.82,22.82,0,0,0-1.61-11.49.28.28,0,0,0-.3-.14.27.27,0,0,0-.19.26C89.7-10,84.7-3,75.87.1,82.78-4.65,84.8-14.09,81.51-19a.27.27,0,0,0-.31-.1.26.26,0,0,0-.15.28c.37,2.06-.61,4.69-2.71,6.73-2.91,2.81-6.85,3.45-8.81,1.43s-1.2-6,1.7-8.76a9.75,9.75,0,0,1,3.45-2.19.25.25,0,0,0,.17-.27.26.26,0,0,0-.23-.22c-6.39-.55-10.77,3.25-13.52,7.88S53.53-5.77,47.89-6.51a.24.24,0,0,0-.27.17.26.26,0,0,0,.11.3,11.05,11.05,0,0,0,9.86,1C51.8-.08,43.55,2.75,35.75.24a.25.25,0,0,0-.29.1.26.26,0,0,0,0,.31C41.4,7.21,53.18,7.34,60.6,2c-3,4.32-7.07,7.49-14.3,8.48a.25.25,0,0,0-.21.22.24.24,0,0,0,.16.27c8.29,3.08,16.6-.05,23.44-8.22a26.34,26.34,0,0,1-14.76,14,.25.25,0,0,0-.17.28.26.26,0,0,0,.25.21c3.94.08,7.49-.86,12.26-3.57C63.77,19.4,64.53,29.35,69.64,36A.26.26,0,0,0,70,36a.25.25,0,0,0,.14-.27c-1.17-7.2,1.3-15.33,5.61-19.64a18.18,18.18,0,0,0,5.9,19.64.27.27,0,0,0,.26,0,.31.31,0,0,0,.16-.21c1.23-9.42,11.77-19,20.6-19.77a.25.25,0,0,0,.23-.24.24.24,0,0,0-.2-.26,20.83,20.83,0,0,0-12.39,1,21.78,21.78,0,0,1,9.56-6.25.25.25,0,0,0,.18-.27.27.27,0,0,0-.24-.22A20.39,20.39,0,0,0,87,13.17,31.4,31.4,0,0,1,106.46-.34a.27.27,0,0,0,.2-.26.26.26,0,0,0-.23-.24C94.51-2.14,84.68,2.48,78.21,11.08c1.65-4.9,6.36-9.76,12.94-12.62C97-4.09,103-4.49,107.58-3a.26.26,0,0,0,.28-.1A.25.25,0,0,0,107.85-3.45ZM54.94,72.12c4.81-10.49,4.47-18.69.6-29.06a.28.28,0,0,0-.29-.16.26.26,0,0,0-.2.27c.62,12.62-2.83,21.65-10.3,27.8C53,61.12,49.1,41.41,35.92,41.41c-9.58,0-17.51,8-19.45,17.53a.25.25,0,0,0,.16.28.26.26,0,0,0,.31-.1c2.84-4.76,7.41-7.85,12.45-7.85,8.14,0,10.54,6.46,10.54,11,0,6.19-4.92,11.35-8.7,11.35a4.94,4.94,0,0,1-5-4.93,8.85,8.85,0,0,1,6.37-8.16.26.26,0,0,0,.18-.28.25.25,0,0,0-.25-.22,10.47,10.47,0,0,0-9.63,5.57,17.45,17.45,0,0,1,.64-7.73.23.23,0,0,0-.12-.29.26.26,0,0,0-.32.06C15.71,67,19.23,83.26,25,90,19.51,86,14.62,77.36,14.7,65.6a.25.25,0,0,0-.2-.25.26.26,0,0,0-.29.15c-4.11,10.25-1.93,29.25,9.28,39.85a20,20,0,0,1-9.12-.69.26.26,0,0,0-.3.12.25.25,0,0,0,.06.32c4.09,3.45,9.81,4.54,15.26,4.54-4.69-5.5-3.13-16.56,4.36-16.56,5.35,0,7.77,8.3,3.65,12.79a.26.26,0,0,0,0,.31.27.27,0,0,0,.3.1c4.78-1.66,9.94-5.79,9.94-11,0-5-4.81-9.39-11.8-9.05,8.82-2.5,18,.27,22.88,6.25a.26.26,0,0,0,.45-.22c-2.8-10.72-12-15.2-23.44-13.71C45,74.78,59,78.05,65.12,85.84a.25.25,0,0,0,.31.08.27.27,0,0,0,.14-.28C64.2,79,60.7,74.07,54.94,72.12Z"/><path class="cls-3" d="M81.33,52.83a.26.26,0,0,1-.25.21c-12.91.13-24.75,3.27-34,11.51,8-5.55,22.94-7.51,31.53-3.62a.26.26,0,0,1-.12.49c-10.68-.29-19.27,3-26,9,6.87.43,12.57,4.74,12.56,9.85a.26.26,0,0,1-.49.1c-1.12-2.49-4.75-3.78-8.58-2.88-4.18,1-7,4.19-6.3,7.17.47,2,2.44,3.4,5,3.79a.24.24,0,0,1,.22.25.26.26,0,0,1-.23.25,18.4,18.4,0,0,1-3.32,0c-6.49-.62-11.51-4.6-12-9.18-4.71.54-8.88,3.16-10.38,6.77a.26.26,0,0,1-.27.16.27.27,0,0,1-.22-.24c-.37-4.75,1.26-7.83,5-10.85A21.76,21.76,0,0,1,16.25,75a.25.25,0,0,1,.1-.48,16.28,16.28,0,0,0,11.73-5.07C9.82,74.61-5,63.28.12,46.43a.26.26,0,0,1,.27-.18.25.25,0,0,1,.23.23c.92,9.71,7.7,16.11,17.86,17.07A17.45,17.45,0,0,1,6.92,48a.29.29,0,0,1,.19-.27.28.28,0,0,1,.3.15,16.75,16.75,0,0,0,14.16,9.81c-6.34-2.58-10.4-8.6-11.57-16.42a.25.25,0,0,1,.17-.28.24.24,0,0,1,.3.13C14.34,48.72,22.63,53.93,32.92,50c10.62-4.11,15.27-16.39,16.3-25a.27.27,0,0,1,.24-.23.26.26,0,0,1,.26.2c3.72,15.69-3.58,32-16.63,38.84,7.09-2,13.44-6.26,17-13.36,8.3-1,14-3.86,16.86-9.24a.27.27,0,0,1,.3-.12.26.26,0,0,1,.18.26c-.18,2.11-.94,6.33-4.08,8.28a45.77,45.77,0,0,1,17.8,3A.26.26,0,0,1,81.33,52.83ZM51.84-.64a.26.26,0,0,0,.32,0,.27.27,0,0,0,0-.32c-1.62-2.79-.14-6.81,3-6.81C61-7.79,63.72,3,62.85,12.8c-2.16-5.75-4-8-7.35-10.79a.24.24,0,0,0-.32,0,.23.23,0,0,0-.06.31A46.61,46.61,0,0,1,61,26.41c-1.46-6-3.19-9.32-8.12-14.38a.25.25,0,0,0-.33,0,.25.25,0,0,0-.09.31,44.22,44.22,0,0,1,1,34.26.26.26,0,0,0,.35.33C59,44.35,62,42.67,66.52,36.51c-1.36-7.4-.23-11,3.17-17.2-3.94,9.92-1.84,23.9,8.19,29.59a.24.24,0,0,0,.32-.06.25.25,0,0,0,0-.33A17.93,17.93,0,0,1,74,30.58C72.5,41,81.63,49.69,91.81,49.69c9.6,0,16.15-7.5,15.61-14.94s-5.44-11-9.67-12.49a.25.25,0,0,0-.3.1.26.26,0,0,0,0,.31c5.61,5.7,6.38,16.5-3.58,19.76,5.86-5,3.69-16.83-5.69-17.72a.24.24,0,0,0-.26.17.24.24,0,0,0,.1.29,8.05,8.05,0,0,1,3.68,6.58c0,4.67-3.42,6.51-5.68,6.51-3.42,0-6.26-3.26-6.26-8.18,0-5.84,5.26-10.68,12-11.43s12.78,2.15,15.75,6.45a.25.25,0,0,0,.46-.2,17.14,17.14,0,0,0-26.89-9.51c6.61-7.5,17-7.61,25.72.09a.26.26,0,0,0,.32,0,.27.27,0,0,0,.08-.32C104.58,9.77,98,3.35,88.64,4.29c-8.56.85-13.52,9-14.52,15.69-.56-8.52,1.39-14.54,8.75-20.14a.25.25,0,0,0,.07-.32.24.24,0,0,0-.29-.13c-6.79,2-12.23,5.42-15.05,12.54,0-6.16,2.14-12.37,7.52-16.51a.24.24,0,0,0,.07-.31A.23.23,0,0,0,74.9-5C71.45-4,68.73-2.53,66.76.16c-1.31-11.1-6.52-17.69-12.52-17.69-4.13,0-7.21,3-7.21,7.87A11.38,11.38,0,0,0,51.84-.64ZM-47.39,91c3.17,3.9,9.54,5.39,16.44,4a22.65,22.65,0,0,0,1.61,11.48.25.25,0,0,0,.29.14.25.25,0,0,0,.19-.26c-.37-8.76,4.62-15.84,13.45-18.91-6.91,4.76-8.92,14.2-5.64,19.07a.25.25,0,0,0,.31.09.25.25,0,0,0,.15-.28c-.37-2.06.61-4.68,2.72-6.72,2.9-2.82,6.85-3.46,8.81-1.43s1.19,5.94-1.71,8.76a9.72,9.72,0,0,1-3.45,2.18.27.27,0,0,0-.17.27.25.25,0,0,0,.23.22c6.39.56,10.77-3.25,13.52-7.87S6.93,93.3,12.57,94a.26.26,0,0,0,.27-.17.24.24,0,0,0-.11-.3,11,11,0,0,0-9.86-1.06c5.8-4.9,14.05-7.74,21.84-5.22a.26.26,0,0,0,.27-.41C19.07,80.31,7.29,80.18-.13,85.5,2.9,81.19,6.93,78,14.16,77a.28.28,0,0,0,.22-.23.26.26,0,0,0-.17-.26c-8.29-3.08-16.6,0-23.44,8.21a26.31,26.31,0,0,1,14.77-14,.26.26,0,0,0,.16-.28.25.25,0,0,0-.25-.21c-3.94-.08-7.48.86-12.26,3.57,3.51-5.69,2.74-15.64-2.37-22.26a.27.27,0,0,0-.3-.08.26.26,0,0,0-.15.28c1.18,7.2-1.3,15.32-5.61,19.64a18.2,18.2,0,0,0-5.9-19.65.25.25,0,0,0-.25,0,.27.27,0,0,0-.17.2c-1.23,9.42-11.77,19-20.6,19.78a.26.26,0,0,0-.23.23.26.26,0,0,0,.2.27,20.83,20.83,0,0,0,12.39-1,21.76,21.76,0,0,1-9.56,6.24.25.25,0,0,0-.17.27.25.25,0,0,0,.23.23,20.43,20.43,0,0,0,12.73-3.54A31.44,31.44,0,0,1-46,87.87a.25.25,0,0,0-.19.26.27.27,0,0,0,.22.24c11.92,1.3,21.75-3.32,28.22-11.92-1.64,4.9-6.36,9.75-12.94,12.62-5.85,2.54-11.85,2.94-16.42,1.51a.24.24,0,0,0-.29.1A.26.26,0,0,0-47.39,91ZM5.52,15.41C.71,25.89,1.05,34.09,4.92,44.46a.26.26,0,0,0,.5-.1C4.8,31.74,8.24,22.71,15.72,16.55c-8.25,9.86-4.36,29.56,8.82,29.56,9.58,0,17.51-8,19.45-17.52a.26.26,0,0,0-.15-.29.25.25,0,0,0-.31.11c-2.85,4.76-7.41,7.85-12.46,7.85-8.14,0-10.54-6.47-10.54-11,0-6.18,4.92-11.34,8.71-11.34a4.94,4.94,0,0,1,5,4.92A8.88,8.88,0,0,1,27.9,27a.25.25,0,0,0-.18.28.26.26,0,0,0,.25.22,10.48,10.48,0,0,0,9.63-5.57A17.42,17.42,0,0,1,37,29.66a.25.25,0,0,0,.13.3.24.24,0,0,0,.31-.07c7.36-9.39,3.84-25.62-2-32.36,5.53,4,10.42,12.64,10.34,24.4a.26.26,0,0,0,.21.25.25.25,0,0,0,.28-.16C50.36,11.77,48.18-7.22,37-17.83a20.18,20.18,0,0,1,9.12.69.25.25,0,0,0,.3-.11.26.26,0,0,0,0-.32c-4.1-3.46-9.82-4.54-15.27-4.54,4.7,5.5,3.14,16.55-4.35,16.55-5.35,0-7.78-8.3-3.65-12.78a.24.24,0,0,0,0-.31.24.24,0,0,0-.29-.1c-4.78,1.65-10,5.79-10,11,0,5.05,4.81,9.4,11.8,9.06-8.82,2.5-18-.27-22.88-6.26A.24.24,0,0,0,1.46-5a.24.24,0,0,0-.13.29C4.12,6,13.29,10.49,24.77,9c-9.28,3.76-23.25.48-29.43-7.31A.25.25,0,0,0-5,1.61a.24.24,0,0,0-.14.28C-3.73,8.51-.24,13.45,5.52,15.41Z"/></pattern><linearGradient id="linear-gradient" x1="959.71" y1="251.61" x2="959.71" y2="-0.39" gradientUnits="userSpaceOnUse"><stop offset="0" stop-color="#fb0"/><stop offset="0.37" stop-color="#ffbb02" stop-opacity="0.99"/><stop offset="0.51" stop-color="#ffbd09" stop-opacity="0.97"/><stop offset="0.6" stop-color="#ffc014" stop-opacity="0.92"/><stop offset="0.68" stop-color="#ffc525" stop-opacity="0.85"/><stop offset="0.75" stop-color="#ffcb3b" stop-opacity="0.77"/><stop offset="0.8" stop-color="#ffd257" stop-opacity="0.66"/><stop offset="0.86" stop-color="#ffdb77" stop-opacity="0.53"/><stop offset="0.91" stop-color="#ffe59d" stop-opacity="0.39"/><stop offset="0.95" stop-color="#fff0c8" stop-opacity="0.22"/><stop offset="0.99" stop-color="#fffdf6" stop-opacity="0.04"/><stop offset="1" stop-color="#fff" stop-opacity="0"/></linearGradient><linearGradient id="linear-gradient-2" x1="959.71" y1="643.61" x2="959.71" y2="1082.61" gradientUnits="userSpaceOnUse"><stop offset="0" stop-color="#603813" stop-opacity="0.97"/><stop offset="0.46" stop-color="#633c18" stop-opacity="0.95"/><stop offset="0.62" stop-color="#6f4b29" stop-opacity="0.88"/><stop offset="0.74" stop-color="#836447" stop-opacity="0.76"/><stop offset="0.83" stop-color="#a08872" stop-opacity="0.58"/><stop offset="0.91" stop-color="#c5b7a9" stop-opacity="0.35"/><stop offset="0.98" stop-color="#f3f0ed" stop-opacity="0.07"/><stop offset="1" stop-color="#fff" stop-opacity="0"/></linearGradient></defs><g id="Layer_1" data-name="Layer 1"><rect class="cls-4" x="682" y="252.38" width="556.64" height="392"/><polygon class="cls-5" points="682 250.38 -0.68 -1.61 -0.68 1081.38 682 642.38 682 250.38"/><polygon class="cls-5" points="1238.64 250.38 1919.32 -1.61 1919.32 1081.38 1238.64 642.38 1238.64 250.38"/><polygon class="cls-6" points="-0.29 -0.39 682.39 251.61 1239.03 251.61 1919.7 -0.39 -0.29 -0.39"/><polygon class="cls-7" points="-0.29 1082.61 682.39 643.61 1239.03 643.61 1919.7 1082.61 -0.29 1082.61"/></g><g id="Layer_3" data-name="Layer 3"><path class="cls-8" d="M608.85,611.53c-2.5-124.71-7.3-162.66,21-188,12.31-11,29.85-18.74,35-21,35-15.37,66.2-14.38,80-14,20.68.57,96.78.05,249-1,37.53-.26,69-1,69-1,78.2-1.84,89.38-4.51,124-3,62.16,2.71,93.24,4.07,112,22,7,6.66,21.9,23.89,22,134,.05,54-3.49,79-8,149-8.46,131-2.48,131.24-11,145-34.39,55.49-120.37,33.2-325.95,39.74-210.67,6.71-313.64,36.28-349-20.2-6-9.63-8.37-36.27-13.09-89.54C609.21,711.22,610.44,690.86,608.85,611.53Z"/><path class="cls-9" d="M624.65,614.53c-2-104.66-2.71-157.46,15.35-180.8,39.47-51,106.67-31.79,322.37-33.26,231.53-1.58,297.56-24.69,335.16,24.73,17.79,23.38,10.59,38.51,4.26,215.76-5.52,154.86-1,170.69-19.61,192.74-41.31,49-106.51,21.78-306.16,21.32-217.3-.5-279.4,31.37-324.08-18.76C628.49,809.94,627.21,744.8,624.65,614.53Z"/><path class="cls-10" d="M1207.93,487.39a7.53,7.53,0,0,0-4.15,4.11,8.68,8.68,0,0,0,1.77,8.94c3.64,4,11.28,4.16,13.73.57,2-2.93-.21-7.27-.58-8C1216.75,489.39,1212.07,485.94,1207.93,487.39Z"/><path class="cls-11" d="M1172.61,445.46c0,4.92.79,19,11,31.53a48.59,48.59,0,0,0,15,12.28"/><path class="cls-11" d="M1224.37,489.8c4.92,0,19-.79,31.54-11a48.67,48.67,0,0,0,12.27-15"/><path class="cls-11" d="M1198.19,500.83c-4.83.92-18.52,4.21-29,16.52a48.62,48.62,0,0,0-9.35,17"/><path class="cls-11" d="M1249.16,545.19c-.27-4.91-1.7-18.91-12.5-31a48.58,48.58,0,0,0-15.6-11.54"/><path class="cls-10" d="M709.94,482.66a7.53,7.53,0,0,0-3.45,4.7,8.71,8.71,0,0,0,3.15,8.55c4.22,3.38,11.8,2.35,13.66-1.59,1.51-3.2-1.35-7.14-1.83-7.78C719,483.25,713.81,480.58,709.94,482.66Z"/><path class="cls-11" d="M668.5,446.78c.8,4.85,3.75,18.62,15.79,29.42A48.62,48.62,0,0,0,701.06,486"/><path class="cls-11" d="M726.56,482.45c4.86-.8,18.62-3.75,29.43-15.79a48.78,48.78,0,0,0,9.77-16.77"/><path class="cls-11" d="M702.44,497.45c-4.63,1.67-17.63,7.06-26.07,20.87a48.48,48.48,0,0,0-6.57,18.26"/><path class="cls-11" d="M759.73,533.28c-1-4.81-4.64-18.42-17.2-28.63a48.52,48.52,0,0,0-17.22-8.95"/><path class="cls-10" d="M692.11,704.61a7.46,7.46,0,0,0-4.14,4.1,8.68,8.68,0,0,0,1.77,8.94c3.63,4,11.28,4.17,13.73.57,2-2.93-.21-7.27-.59-8C700.94,706.6,696.26,703.16,692.11,704.61Z"/><path class="cls-11" d="M656.8,662.67c0,4.92.79,19,11,31.54a48.72,48.72,0,0,0,15,12.28"/><path class="cls-11" d="M705.56,700c4.92,0,19-.78,31.53-11a48.5,48.5,0,0,0,12.28-15"/><path class="cls-11" d="M682.38,718c-4.83.92-18.52,4.21-29,16.52a48.54,48.54,0,0,0-9.35,17"/><path class="cls-11" d="M730.34,755.4c-.27-4.91-1.69-18.91-12.49-31a48.74,48.74,0,0,0-15.6-11.55"/><path class="cls-10" d="M1212.38,759.6a7.54,7.54,0,0,0-3.61,4.59,8.69,8.69,0,0,0,2.87,8.65c4.11,3.52,11.71,2.73,13.7-1.13,1.61-3.16-1.12-7.19-1.57-7.84C1221.38,760.49,1216.31,757.65,1212.38,759.6Z"/><path class="cls-11" d="M1172.13,722.38c.65,4.88,3.14,18.73,14.82,29.92a48.61,48.61,0,0,0,16.44,10.32"/><path class="cls-11" d="M1229,760c4.87-.64,18.73-3.13,29.92-14.82a48.61,48.61,0,0,0,10.32-16.44"/><path class="cls-11" d="M1204.39,774.14c-4.68,1.52-17.86,6.48-26.75,20a48.65,48.65,0,0,0-7.17,18"/><path class="cls-11" d="M1260.46,811.84c-.87-4.84-4-18.56-16.24-29.18a48.67,48.67,0,0,0-16.91-9.52"/><ellipse class="cls-12" cx="823.77" cy="71.76" rx="45.32" ry="45.04" transform="translate(400.19 781.91) rotate(-64.16)"/><ellipse class="cls-12" cx="916.47" cy="195.39" rx="141.38" ry="146.64" transform="translate(341.21 935.11) rotate(-64.16)"/><path class="cls-13" d="M1348.07,478c4.92-5.24-4-12.45-1.17-25.25,1.76-7.83,5.58-7.19,9.3-17.17,1.11-3,7.5-20.1-1.16-27.27-2.11-1.74-6.83-2.85-16.27-5a73.16,73.16,0,0,0-11.62-2c-7.74-.63-11.71-.85-15.1,1-6.15,3.39-5.93,13.46-5.81,19.19.17,7.54,2.27,12.83,1.16,13.13s-3.31-3.22-4.64-6.06c-3-6.32-1.54-10.44-3.49-11.11-2.16-.74-7.19,3.2-9.29,8.08-3.55,8.24,1.37,18.72,9.29,24.24,5.44,3.79,7.17,1.68,12.78,5.05,12.56,7.56,8.16,20.74,18.59,25.25C1336.29,482.44,1344.65,481.62,1348.07,478Z"/><path class="cls-14" d="M1306.14,413.36a4.59,4.59,0,0,0,9.11,0l-.69.9c1.36-.64,3,1,3.92,1.74a7.79,7.79,0,0,0,4.36,1.94c3.17.2,5.91-2,7.62-4.48l-2.79-.75c.37,3.69,5.22,4.35,8.14,5,1.63.35,3.54.95,5.09.08,1.2-.66,1.64-2.13,2.83-2.74l-1.82-.23a17.09,17.09,0,0,0,9.21,4.05c2.89.33,6-.36,7.66-3a1.52,1.52,0,0,0-1.29-2.26l-13-1.5a42,42,0,0,0-5.9-.63,3.26,3.26,0,0,0-3.33,2.22,1.53,1.53,0,0,0,1,1.85l2.22.75.8-2.9c-2.75-.72-5.49-1.57-8.26-2.16a9.62,9.62,0,0,0-4-.14c-1.18.26-2.21.92-3.37,1.23s-2.2-.28-3.31-.66a18.66,18.66,0,0,0-3.76-.8,18,18,0,0,0-7.83.92c-1.82.63-1,3.53.79,2.89a15.53,15.53,0,0,1,7.28-.78c2.3.34,4.51,1.85,6.87,1.48a14.69,14.69,0,0,0,3-1,6.09,6.09,0,0,1,3.73-.16c2.69.61,5.36,1.4,8,2.11a1.51,1.51,0,0,0,.8-2.9l-2.22-.74,1,1.84s.75,0,1,0c.86.06,1.73.2,2.59.3l5.14.59,10.53,1.22-1.3-2.26c-1.1,1.77-3.65,1.74-5.47,1.43a14,14,0,0,1-6.69-3.11,1.56,1.56,0,0,0-1.81-.24,6.48,6.48,0,0,0-2,1.93c-.21.27-.48.71-.82.83a4.27,4.27,0,0,1-1.87-.22c-1.33-.26-2.65-.59-4-1-.51-.15-2.8-.56-2.87-1.31a1.52,1.52,0,0,0-2.8-.76c-1.09,1.56-3,3.19-5,3s-3.59-2.46-5.49-3.28c-1.72-.75-4.45-.92-5.06,1.24s-3,1.78-3.28-.3c-.28-1.9-3.17-1.09-2.89.8Z"/><path class="cls-14" d="M1291.6,432.08c.59-1.54,3.49-11.09,6.41-7.43,1.37,1.71,1.88,4,3,5.89a27.82,27.82,0,0,0,2.06,3c.56.73,1.65,1.67,1.52,2.66l2.26-1.29a17.64,17.64,0,0,1-4.78-4.77,33.85,33.85,0,0,1-1.86-3c-.54-1-1-2.11-1.54-3.08a2.92,2.92,0,0,0-3.23-1.54,3.73,3.73,0,0,0-2.51,2.74c-.36,1.26-.55,2.55-1,3.81a23.34,23.34,0,0,1-1.58,3.67,1.52,1.52,0,0,0,2.06,2.05,36.24,36.24,0,0,1,4.4-2.11,1.61,1.61,0,0,1,.8-.17c-.23-.07.15.26.19.3a3.36,3.36,0,0,0,1.7,1.17,1.51,1.51,0,0,0,1.46-2.5,32.3,32.3,0,0,1-3.85-5.64,1.52,1.52,0,0,0-2.74.35,5.44,5.44,0,0,0-.33,3.44,3.44,3.44,0,0,0,.83,1.4,5.27,5.27,0,0,0,1.33.78l-.54-.53.09.18-.21-.75c0,.69,0,1.4,0,2.1a1.5,1.5,0,0,0,3,0c0-1.35.3-3.13-1.22-3.77-.1-.05-.54-.3-.33-.07a.7.7,0,0,1-.14-.27,4.09,4.09,0,0,1,.38-1.71l-2.74.36a35.85,35.85,0,0,0,4.32,6.25l1.46-2.51c-.26-.06-.91-1-1.27-1.17a3.5,3.5,0,0,0-2.78-.21,31.77,31.77,0,0,0-5.36,2.49l2.06,2.05a27.16,27.16,0,0,0,2.55-6.92,8.63,8.63,0,0,1,.36-1.52c0-.12.19-.25.22-.35a.16.16,0,0,1,.11-.05c-.32-.07-.42-.09-.31,0s.54,1,.56,1c.22.46.44.91.67,1.37a24.85,24.85,0,0,0,8.18,9.79,1.52,1.52,0,0,0,2.26-1.3c.21-1.6-.9-2.86-1.82-4a26.55,26.55,0,0,1-2.45-3.6c-1.29-2.36-1.89-5.27-4.17-6.95-2.47-1.83-5.45-.17-7,2s-2.42,5.14-3.41,7.69a1.52,1.52,0,0,0,1,1.85,1.54,1.54,0,0,0,1.85-1.05Z"/><path class="cls-15" d="M1280.78,430.75a553.77,553.77,0,0,1,77.07.84c3.8.31,7.87.61,11.19-1.27.3-.17.63-.42.62-.77s-.45-.63-.83-.76c-12-4.32-25.19-2.92-37.77-4.93-3.92-.62-7.78-1.58-11.72-2.08a99.16,99.16,0,0,0-17.32-.15c-4.93.24-9.87.48-14.76,1.17-3.8.53-7.9,1.54-10.21,4.59a.78.78,0,0,0-.22.63c.05.21.26.34.45.44l3.56,1.93"/><path class="cls-12" d="M1282.75,420.92a47.25,47.25,0,0,0,8.73,2.25c3.24.41,6.53.15,9.8.31,4.08.19,8.1,1,12.18,1.33s8.4,0,12.61,0c14.56,0,29.14,3.11,43.62,1.48.92-.1,2-.32,2.39-1.15a2,2,0,0,0-1.16-2.51,6.61,6.61,0,0,0-3-.35c-6.09.12-12-1.68-18.05-2.71-4.19-.72-8.42-1.08-12.65-1.43-3.53-.29-7.06-.58-10.6-.62-4.26,0-8.52.3-12.79.37-9.15.14-18.27-1-27.41-1.33-1.41-.06-3,0-4,1s-.6,3.22.81,3.19"/><path class="cls-16" d="M1284.28,427.35c9.66-.63,19.33.56,29,1,19.51.8,39.17-1.6,58.53,1,.88.12,2,.63,1.79,1.49a1.52,1.52,0,0,1-.85.82c-7.39,3.95-16.32,2.7-24.67,2-12-1-24.1-.51-36.16-.71-10.54-.18-21.07-.86-31.6-1.55a.7.7,0,0,1-.55-.19.68.68,0,0,1,0-.65,4.71,4.71,0,0,1,5.11-3.15"/><path class="cls-17" d="M1283.78,414.19a5.54,5.54,0,0,0-3.08.5,2,2,0,0,0-.89,2.68,2.77,2.77,0,0,0,1.5.93c3.74,1.22,7.76,1.07,11.69,1,7.77-.17,15.54,0,23.32.08l29.38.49c7.89.13,15.82.25,23.63-.89a2.84,2.84,0,0,0,2.29-1.17,2,2,0,0,0-.94-2.4,5.74,5.74,0,0,0-2.76-.55L1339.8,414l-20-.63c-12.4-.39-24.83-.78-37.18.39"/><path class="cls-18" d="M1295.57,413.48l-9.83.17a14.06,14.06,0,0,0-3.18.3,7.07,7.07,0,0,0-2.89,1.49.54.54,0,0,0-.23.32.56.56,0,0,0,.12.36,4.61,4.61,0,0,0,1.66,1.91,4.43,4.43,0,0,0,1.38.38,53.52,53.52,0,0,0,14,.37l-.74-5.55"/><path class="cls-18" d="M1294.56,423.51l-9.83.12a19.68,19.68,0,0,0-3.18.21,8.58,8.58,0,0,0-2.89,1.05c-.1.07-.21.14-.23.23s0,.18.12.26a3.94,3.94,0,0,0,1.66,1.35,5.72,5.72,0,0,0,1.38.27,74.61,74.61,0,0,0,14,.26l-.74-3.93"/><path class="cls-18" d="M1295.57,427.67l-9.83.14a17.65,17.65,0,0,0-3.18.24,7.85,7.85,0,0,0-2.89,1.21c-.1.07-.21.15-.23.26a.39.39,0,0,0,.12.29,4.08,4.08,0,0,0,1.66,1.55,5.32,5.32,0,0,0,1.38.31,65.06,65.06,0,0,0,14,.29l-.74-4.49"/><path class="cls-18" d="M1296.75,419.69l-9.73-1.37a24.56,24.56,0,0,0-3.18-.29,9.25,9.25,0,0,0-3,.5c-.11,0-.22.09-.25.17a.28.28,0,0,0,.08.25,3.9,3.9,0,0,0,1.46,1.45,6.31,6.31,0,0,0,1.33.45,83.48,83.48,0,0,0,13.82,2.34l-.2-3.61"/><path class="cls-19" d="M1373.82,412.58a3.27,3.27,0,0,0-.59-2.42c-.32-.43-1-.82-.56-1.4a2.46,2.46,0,0,1,.86-.46c1.1-.52,2.23-1.34,1.52-2.69-.47-.9-1.32-1.46-1.61-2.48a37.19,37.19,0,0,1-.77-3.92,82.44,82.44,0,0,1-1-8.59c0-.47-.78-.48-.75,0q.25,3.9.85,7.74c.34,2.15.43,4.87,1.86,6.61.29.36.8.79.88,1.27.1.64-.47,1-1,1.22a4.87,4.87,0,0,0-1.58.91,1.12,1.12,0,0,0-.21,1.15,2.92,2.92,0,0,0,.69.87,2.68,2.68,0,0,1,.61,2.19c-.06.48.69.48.75,0Z"/><path class="cls-19" d="M1377,420a3.66,3.66,0,0,0-1.46-4.37v.64a10.74,10.74,0,0,0,3.57-3.83,4.41,4.41,0,0,0,.37-2.29,29.7,29.7,0,0,1-.57-2.93c0-1.11.81-1.7,1.31-2.6a1.38,1.38,0,0,0,.08-1.51c-.33-.51-.68-.6-.53-1.41.06-.35.4-.73.49-1.11a3.38,3.38,0,0,0-.36-2.37c-.23-.42-.87,0-.65.38a2.52,2.52,0,0,1,.25,1.95c-.13.43-.41.73-.57,1.14a1.24,1.24,0,0,0,0,1.17c.26.51.83.82.55,1.5a3.78,3.78,0,0,1-.53.73,3.57,3.57,0,0,0-.78,1.67c-.2,1.65.9,3.16.44,4.83s-2.1,3-3.47,4a.37.37,0,0,0,0,.64,2.91,2.91,0,0,1,1.11,3.53c-.17.46.56.65.73.2Z"/><path class="cls-19" d="M1380.32,428.42a6.66,6.66,0,0,0-2-6.68v.53a39.47,39.47,0,0,0,6.55-8.23c.47-.79.92-1.61,1.33-2.44a6,6,0,0,0,.79-2.11,1.57,1.57,0,0,0-1.77-1.79c-.47.07-.27.79.2.72.83-.12.81,1.1.69,1.58a5.09,5.09,0,0,1-.48,1.07c-.28.57-.58,1.13-.89,1.69-.59,1.06-1.24,2.1-1.93,3.1a38.61,38.61,0,0,1-5,5.88.38.38,0,0,0,0,.53,5.9,5.9,0,0,1,1.82,6,.38.38,0,0,0,.73.2Z"/><path class="cls-19" d="M1385.66,403.79c-.14-1.79-.21-3.6-.42-5.38-.11-.93-1-2-1.92-1.18l.64.26,0-7.63a.38.38,0,0,0-.75,0l0,7.63a.38.38,0,0,0,.64.27c.55-.48.67,1,.69,1.21l.12,1.6.25,3.22c0,.48.78.48.75,0Z"/><path class="cls-12" d="M1382.94,426.59a2.78,2.78,0,0,0-2.12-3.49l.16.63c2.91-2.32,1.71-7,1.33-10.1a.38.38,0,0,0-.37-.38c-.66.05-.88-.56-.91-1.11a2.38,2.38,0,0,1,.64-1.64,6.18,6.18,0,0,0,1.56-2.59c.08-.47-.64-.68-.73-.2-.29,1.61-2.1,2.44-2.22,4.12-.07,1,.46,2.26,1.66,2.17l-.38-.37c.35,2.89,1.58,7.42-1.11,9.57a.37.37,0,0,0,.17.62,2,2,0,0,1,1.6,2.57.37.37,0,0,0,.72.2Z"/><path class="cls-12" d="M1375.24,416.68c-1.44-1.69-.69-4.79-.29-6.73a7.64,7.64,0,0,0,.49-2.77,9.17,9.17,0,0,0-1.4-2.61c-.25-.42-.33-.45-.23-.87s.2-.61.25-.94a2,2,0,0,0-.23-1.45c-.34-.51-1-.37-1.28-.76s-.19-1.26-.21-1.77l-.07-1.94c0-.48-.77-.49-.75,0,0,1.15,0,2.34.13,3.49,0,.59.19,1,.78,1.15s.86.14.92.79a2.84,2.84,0,0,1-.25,1.18c-.09.22-.24.4-.2.64a5.11,5.11,0,0,0,.77,1.33,10.31,10.31,0,0,1,.8,1.36,3.26,3.26,0,0,1-.08,2.22,27,27,0,0,0-.54,3.11c-.21,1.76-.36,3.67.86,5.1.32.37.85-.16.53-.53Z"/><path class="cls-12" d="M1375.79,429a6.52,6.52,0,0,1,1-5.56c.18-.25-.07-.55-.32-.56a12,12,0,0,1-3.59-.8l.26.46a22.74,22.74,0,0,1,4.23-7.42c.31-.37-.22-.9-.53-.53a23.54,23.54,0,0,0-4.42,7.75.38.38,0,0,0,.26.46,12.32,12.32,0,0,0,3.79.83l-.33-.57a7.29,7.29,0,0,0-1.12,6.14.38.38,0,0,0,.73-.2Z"/><path class="cls-20" d="M1308.85,415.39c.55,0,1.09,0,1.63,0l.8.07.19,0c.18,0-.11,0,0,0l.44.07-.45-1.1-.06.1c-.06.11.1-.1,0,0s-.08.09-.13.13a.46.46,0,0,0-.07.07c.1-.13.1-.08,0,0l-.16.1-.09,0c-.08,0,.18-.07.06,0l-.2.07-.19,0h-.34c-.09,0,.19,0,.07,0l-.21-.05s-.24-.08-.11,0,0,0,0,0l-.1-.05-.08,0c-.1-.06,0,0,0,0a1.79,1.79,0,0,1-.14-.13l-.08-.08s.1.14,0,0a.75.75,0,1,0-1.29.75,2.49,2.49,0,0,0,2.17,1.08,2.52,2.52,0,0,0,2.12-1.18.75.75,0,0,0-.45-1.1,16.5,16.5,0,0,0-3.51-.24.75.75,0,0,0,0,1.5Z"/><path class="cls-20" d="M1322,416.05a1.58,1.58,0,0,0,.93.18c.28,0,.55-.1.82-.14l-.2,0a.89.89,0,0,1,.23,0l-.2,0a.79.79,0,0,1,.22.06l-.18-.07.18.1-.15-.12a.93.93,0,0,1,.14.14l-.12-.15a.41.41,0,0,1,.07.11l-.08-.18a.31.31,0,0,1,0,.08l0-.2v.08l0-.2a.19.19,0,0,1,0,.08l.08-.18,0,.06.11-.15-.07.07.15-.12a.47.47,0,0,1-.09.06l.18-.08-.11,0,.2,0h-.29l.2,0a3.34,3.34,0,0,1-.88-.22l.18.08a1.35,1.35,0,0,1-.33-.19l.15.12a.91.91,0,0,1-.17-.17l.12.15a.94.94,0,0,1-.12-.18.74.74,0,0,0-1-.27.77.77,0,0,0-.35.44.89.89,0,0,0,.08.58,1.87,1.87,0,0,0,1.06.89,4.25,4.25,0,0,0,1.11.25,1.39,1.39,0,0,0,.8-.15,1.08,1.08,0,0,0,.54-.89,1.29,1.29,0,0,0-.77-1.15,1.47,1.47,0,0,0-.82-.17c-.28,0-.55.11-.82.15l.19,0a1.14,1.14,0,0,1-.32,0l.2,0-.18-.05.17.07,0,0a.75.75,0,0,0-.76,1.3Z"/><path class="cls-20" d="M1335.93,416.66a14,14,0,0,1,2.67.08l-.53-1.28c0,.05-.18.11,0,0l-.08.06-.2.11s.2-.08,0,0l-.1,0-.23.05.2,0a2,2,0,0,1-.49,0l.2,0a1.36,1.36,0,0,1-.29-.06l-.13,0c-.08,0,.15.07.08,0l-.08,0c-.06,0-.2-.08-.23-.14s.14.12.07.05l-.07-.06-.1-.11a.75.75,0,0,0-1.06,0,.75.75,0,0,0,0,1.06,2.42,2.42,0,0,0,1.73.79,2.45,2.45,0,0,0,1.79-.64.74.74,0,0,0,.16-.82.69.69,0,0,0-.23-.3.82.82,0,0,0-.46-.16,14,14,0,0,0-2.67-.08.77.77,0,0,0-.75.75.76.76,0,0,0,.75.75Z"/><path class="cls-20" d="M1351.68,417.43h1.81c.3,0,.6,0,.89,0,.08,0,.06,0-.07,0a.51.51,0,0,1-.3-.24.56.56,0,0,1,0-.44c.06-.14.07-.17,0-.1.09-.11.11-.13.06-.08s0,0,.06,0l-.12.07.09,0-.08,0c-.07,0,0,0,.07,0H1354l-.45.05-.89.11c-.12,0-.25,0-.38,0h-.1c-.08,0-.06,0,.06,0l-.1,0h0c.06,0,.06,0,0,0l.06.05,0,.06a.25.25,0,0,1,0-.07c0,.12.06.14,0,.07,0,.14,0,.17,0,.09,0,.14,0,.17,0,.09a.53.53,0,0,1-.11.21.77.77,0,0,0,0-1.06.75.75,0,0,0-1.06,0,1.14,1.14,0,0,0-.26,1.14,1.38,1.38,0,0,0,.87.86,2.09,2.09,0,0,0,.93.05l.92-.11a5.25,5.25,0,0,0,1-.14,1.5,1.5,0,0,0,.82-.62,1,1,0,0,0-.35-1.29,2.32,2.32,0,0,0-1.11-.14h-2.17a.75.75,0,0,0,0,1.5Z"/><path class="cls-20" d="M1294.94,421.56a5.18,5.18,0,0,0-1.26,1.34,4.92,4.92,0,0,0-.67,1.56.78.78,0,0,0,.35.85.79.79,0,0,0,.91-.12l-.06,0,.07,0,.14-.07-.18.07a1.57,1.57,0,0,1,.31-.08l-.2,0h.16a.73.73,0,0,0,.53-.22.85.85,0,0,0,.22-.53,1.49,1.49,0,0,1,0-.21l0,.2a4.85,4.85,0,0,1,.31-1.13l-.07.18a4.16,4.16,0,0,1,.47-.85.78.78,0,0,0,.07-.58.81.81,0,0,0-.34-.45.78.78,0,0,0-1,.27,5.26,5.26,0,0,0-.9,2.57l.75-.75a2,2,0,0,0-1.3.5l1.25.73a4.37,4.37,0,0,1,.22-.7l-.07.18a4.87,4.87,0,0,1,.54-.94c-.13.19-.06.08,0,0l.1-.12.18-.19.2-.19.09-.07.06-.05c-.1.08-.12.09-.06.05a.91.91,0,0,0,.35-.45.78.78,0,0,0-.08-.58.74.74,0,0,0-.45-.34.7.7,0,0,0-.58.07Z"/><path class="cls-21" d="M687.24,960.77c-.26-13.68-.45-33.48,0-57.31,2.1-112.24,16.27-206.84,24.33-245.2C742,513.37,866.92,307.18,979.23,318.89c58.12,6.07,94.08,68.29,147.47,162.62C1208.49,626,1223,778.11,1217.09,855c-1,12.92-8.9,105.77-8.9,105.77Z"/><path d="M954.49,435.55c2.56,36.16,4.09,67,5,90.91,1.29,32.3,2.17,54.39,2,84.84-.23,44.5-2.91,44.35-2,78.78.62,24.07,2.14,36.09,2,66.66-.09,21.57-.86,20.28-1,40.4-.13,16.26.92,40,3,86.87.83,18.6,1.68,36.51-2,60.6-1,6.81-2.2,12.39-3,16.16"/><path d="M835.08,399.5a171.62,171.62,0,0,0,22.3,140,.76.76,0,0,0,.85.34A75,75,0,0,0,884,525.28a72.19,72.19,0,0,0,24.25-44.57,74.5,74.5,0,0,0,.24-18.93c-.11-.94-1.61-.95-1.5,0a70.91,70.91,0,0,1-37.49,71.61,71.28,71.28,0,0,1-11.62,5l.85.34a169.83,169.83,0,0,1-22.15-138.8.75.75,0,0,0-1.45-.4Z"/><path d="M1097.62,434.28a116.85,116.85,0,0,1,10.7,42.25,115.35,115.35,0,0,1-11.2,56.51,120.75,120.75,0,0,1-10.84,18.29l.85-.35a99.62,99.62,0,0,1-24.74-14.4,88.78,88.78,0,0,1-27-35.81,87.77,87.77,0,0,1-5.43-19.86c-.14-1-1.59-.55-1.44.4a88,88,0,0,0,16.35,39.32,95.33,95.33,0,0,0,29.44,25.79,103.82,103.82,0,0,0,12.43,6,.78.78,0,0,0,.85-.34,120.49,120.49,0,0,0,19-40.9,116.58,116.58,0,0,0-.55-58.05,118.77,118.77,0,0,0-7.13-19.61c-.4-.88-1.7-.12-1.29.75Z"/><circle class="cls-15" cx="836.82" cy="410.81" r="8.59"/><circle class="cls-15" cx="840.86" cy="424.95" r="8.59"/><circle class="cls-15" cx="844.9" cy="439.09" r="8.59"/><circle class="cls-15" cx="848.94" cy="452.22" r="8.59"/><circle class="cls-15" cx="853.99" cy="465.35" r="8.59"/><circle class="cls-15" cx="858.13" cy="477.64" r="8.59"/><circle class="cls-15" cx="866.21" cy="489.76" r="8.59"/><circle class="cls-15" cx="872.27" cy="500.87" r="8.59"/><circle class="cls-15" cx="881.36" cy="509.96" r="8.59"/><circle class="cls-15" cx="888.43" cy="519.06" r="8.59"/><circle class="cls-15" cx="897.53" cy="528.15" r="8.59"/><circle class="cls-15" cx="910.66" cy="537.24" r="8.59"/><circle class="cls-15" cx="925.81" cy="543.3" r="8.59"/><circle class="cls-15" cx="940.97" cy="548.35" r="8.59"/><circle class="cls-15" cx="955.11" cy="553.41" r="8.59"/><circle class="cls-15" cx="969.26" cy="553.41" r="8.59"/><circle class="cls-15" cx="984.41" cy="551.39" r="8.59"/><circle class="cls-15" cx="999.56" cy="548.36" r="8.59"/><circle class="cls-15" cx="1013.71" cy="543.31" r="8.59"/><circle class="cls-15" cx="1026.84" cy="539.26" r="8.59"/><circle class="cls-15" cx="1038.97" cy="531.18" r="8.59"/><circle class="cls-15" cx="1050.08" cy="521.08" r="8.59"/><circle class="cls-15" cx="1061.19" cy="509.97" r="8.59"/><circle class="cls-15" cx="1072.31" cy="497.84" r="8.59"/><circle class="cls-15" cx="1081.3" cy="485.61" r="8.59"/><circle class="cls-15" cx="1086.35" cy="471.47" r="8.59"/><circle class="cls-15" cx="1089.38" cy="458.34" r="8.59"/><circle class="cls-15" cx="1092.41" cy="445.21" r="8.59"/><circle class="cls-15" cx="1094.43" cy="435.11" r="8.59"/><path class="cls-22" d="M834.29,555.75c.45-2,.39-3.58,1.46-5.9.84-1.8,1.46-2.1,1.86-2.24a2.71,2.71,0,0,1,3,1.38,7.91,7.91,0,0,1,.77,3.48l.51,7.87a23.4,23.4,0,0,1,1.77-10.12c.49-1.2,1.42-2.55,2.71-2.39,1.52.2,1.91,2.2,1.92,3.73l0,8.82a11.86,11.86,0,0,1,2.79-8.34c.7-.81,2.05-1.52,2.73-.69a2,2,0,0,1,.34,1,48.81,48.81,0,0,1,.51,8.71c-.94-3.22,2.39-6.44,5.74-6.61a3.52,3.52,0,0,1,2.63.74,4.55,4.55,0,0,1,1,2.16,13.29,13.29,0,0,1,.7,4.91,4.49,4.49,0,0,1-2.73,3.85,12.42,12.42,0,0,1,3.79-2.5,4.25,4.25,0,0,1,4.3.64,4.1,4.1,0,0,1,.67,4.49,9.26,9.26,0,0,1-3.12,3.61,26.71,26.71,0,0,1-4.82,2.95,4.12,4.12,0,0,1,6.1,4.58,5.58,5.58,0,0,1-3.61,3.58,16.3,16.3,0,0,1-5.21.73,13.42,13.42,0,0,1,4.29,1.88,4.47,4.47,0,0,1,1.93,4c-.34,2.27-3.07,3.56-5.32,3.09s-4-2.19-5.43-4a6.28,6.28,0,0,1-2.17,9.4,1.55,1.55,0,0,1-1.24.11,1.72,1.72,0,0,1-.77-1.27q-.74-2.9-1.25-5.83a13.77,13.77,0,0,1-7.81,9.24,9.93,9.93,0,0,1-.82-7.66c-.69,2.86-4,4.1-6.84,4.8a3.36,3.36,0,0,1-1.63.14,2.9,2.9,0,0,1-1.82-2.49,7.37,7.37,0,0,1,2.7-6.93c-1.39,1-2.82,1.91-4.27,2.79-1.74,1-4,2-5.69.93s-1.79-3.63-.75-5.33,2.88-2.73,4.63-3.69a12.46,12.46,0,0,0-4,.12c-1.33.11-2.87-.14-3.6-1.27-.87-1.33-.05-3.23,1.3-4.08a9,9,0,0,1,4.61-1,26.37,26.37,0,0,1-7.48-.35,8.87,8.87,0,0,1-5.94-4.23,19,19,0,0,1,13.11-2c-3.36,0-7.31-.23-9.13-3.06-.39-.61-.61-1.49-.09-2a1.66,1.66,0,0,1,.92-.39,10.52,10.52,0,0,1,6.47.79,29.81,29.81,0,0,1-5.69-3.59c-.75-.6-1.51-1.72-.82-2.4a1.68,1.68,0,0,1,1.38-.29,18.33,18.33,0,0,1,8.2,2.83,27.37,27.37,0,0,1-3.3-9.19,3.38,3.38,0,0,1,.05-1.76,1.61,1.61,0,0,1,1.42-.79c1-.08,2,.81,2.87,2a25.89,25.89,0,0,1,4,8.08A17.06,17.06,0,0,0,834.29,555.75Z"/><path class="cls-23" d="M838.79,566.72a8.37,8.37,0,0,0-2.82,8.76,10.4,10.4,0,0,0,6.82,6.57c3.57,1.15,8.06.27,10-2.93a12.45,12.45,0,0,0,1.52-5.63c-.13-3.58-4.16-6.22-4.7-6.56a10.69,10.69,0,0,0-8.26-1.43A7.37,7.37,0,0,0,838.79,566.72Z"/><path class="cls-21" d="M1120.13,476c1.93-.7,92.63,151.86,129.62,195,4.4,5.13,16.42,18.49,35,22.15,2.39.47,18.31,2.89,30.3-5.05,18.5-12.24,18-42.85,17-66.57-1.5-36-5.35-87.85-15.73-153.61a119.79,119.79,0,0,0,36.65-.51c4.59,44.79,7.11,83.07,8.59,112.62,4.38,87.84,0,108.78-15.15,124.23-21.72,22.14-54.19,21.4-62.62,21.21-65.36-1.49-100.66-68.85-102.21-71.91h0C1132,514.59,1119.21,476.29,1120.13,476Z"/><path d="M759.36,701.31q-5.13,21.53-8.9,43.34-4.2,24.39-6.69,49-2.76,27.39-3.36,54.93-.6,28.21,1.08,56.43,1.5,25.28,4.84,50.4c.24,1.8.48,3.61.74,5.42.06.48.79.27.72-.2q-3.45-24.67-5.16-49.55-1.9-27.78-1.58-55.65.33-27.59,2.83-55.09,2.29-25.2,6.41-50.19,3.62-22,8.62-43.7l1.17-5c.11-.47-.61-.67-.72-.2Z"/><rect class="cls-24" x="863.28" y="228.55" width="211.8" height="263.66" rx="31.54"/><g class="cls-25"><path class="cls-26" d="M879.42,420.8c8.91-.37.64-35.3,37.07-82,10.62-13.59,26-32.78,56.13-49.19,42.13-22.9,78.16-21.34,78.08-29.93-.16-16.08-126.54-25.75-135.19-26.39-26.17-1.94-39.42-2.85-47.37,0C802.08,257,860.05,421.58,879.42,420.8Z"/></g><path class="cls-27" d="M1059.63,311.2c.06,9.69,1,11.19,2.45,25.87a445.65,445.65,0,0,1,1.53,54.93c-.07,1.58-2.82,18.44-8.34,52.14a44.42,44.42,0,0,1-13.72,26.09c-.53.5-9.44,8.55-12.18,6.87-4.31-2.64,13.43-25.14,21.33-56.3,4-15.59,3.64-27.33,3-50.81-1-38.66-8.15-84.6,3-94.75.49-.45,1.88-1.7,3-1.38C1063.62,274.93,1059.5,291,1059.63,311.2Z"/><path class="cls-28" d="M886.17,417.06c7.69-2.71,10.51-2.19,22.08-4.71,0,0,17-3.72,17.49-7,.13-1-.55-2.13-2.41-2.66a11.39,11.39,0,0,0-3.69-.43c-7.18.53-10.76.8-13.21,1.45-12.67,3.36-28.9,15.45-27.9,16.38C878.87,420.38,880.76,419,886.17,417.06Z"/><path class="cls-13" d="M858.71,143.41c-35.22,26.27-38.69,65.51-44.19,127.71,0,0-7.45,84.27,39.62,184,4.85,10.29,11.43,22.9,24.38,35.7,33.78,33.4,80.35,37.8,88.37,38.45,13,1.05,46.56,3.77,79.24-15.1,35.63-20.58,46.71-53.26,47.23-54.93s1.08-3.58,1.08-3.58c.87-3,1.58-5.79,2.56-9.69,7.49-29.66,9.69-52.29,11.6-69.12s11.55-98.36,3.05-101.62a38.86,38.86,0,0,0-6.71-1.75,35.6,35.6,0,0,0-5.87-.46c-8.51,0-33.07,1.08-33.77.89a2.88,2.88,0,0,0-.8-.07h-.09c-19.88,3.28,24.88,159.29-36.57,204.61-26.95,19.88-69.59,15-94.47,4.12-52.8-23-59.82-87.46-67-153.8-4-36.64-9.37-86.08,15.24-97.5,22.56-10.46,69.23,11.53,91.42,22A191,191,0,0,0,1011.08,267a222,222,0,0,0,22.86,4.12c19.41,2.77,25.58,2,42.66,4.12,11.65,1.46,12.54,2.3,30.47,5.49,32.62,5.81,51,11.51,54.86,5.49,2.85-4.48-3.91-12.5-20.59-35.5-24.57-33.9-22.11-33.34-31.39-44.9-5.49-6.84-35.49-45.35-79.06-65.16C986.35,120.41,908.11,106.56,858.71,143.41Z"/><path class="cls-27" d="M995.84,249.15c-40.21-10.44-45.84-14.67-72.66-18.63-29.12-4.3-39-1.75-46.19,3.52-11.6,8.56-14,22.86-16.44,36.88-3.52,20.63.79,27.61,5.78,82.59,1.79,19.76,2.24,29.62,2.33,33.33.42,16.85-.94,19.42,3.76,31.21,4.45,11.14,19.28,43.1,56.38,61.8a110.39,110.39,0,0,0,41.14,12.36c22.56,2,41.61-3.77,61-9.62,1.57-.47,2.42-.75,3.16-1,1.28-.46,2.31-.87,3.09-1.2,7.59-3.19,11.39-4.79,15.08-7.4s6.56-4.64,7.62-8.24c.74-2.51.87-6.61-1.52-8.24-2.92-2-9.54-.26-15.24,5.5,0,0-4.41,3.53-14.56,12.05-2.65,2.22-2.81,2.39-3.73,3.05-19.81,14.36-47.3,11.55-53.33,11-18.15-1.69-30.76-8.69-39.61-13.74-35.27-20.08-47.92-51.45-50.28-57.67-6.66-17.5-.44-15.92-4.58-60.42-3.89-41.92-11.1-61.39-3-93.38,3.24-12.88,4.87-19.42,10.66-23.35,15.86-10.76,44.71-.88,103.62,20.6,2.32.85,8.83,3.24,17.77,5.74,10.4,2.9,18.53,4.39,23.37,5.25,25.26,4.48,44.09,7,64,9.61,45.1,6,65,12.54,68.57,5.49,1.3-2.58-.11-5.93-1.4-8.23-29.54-3-42.06-4.65-45.84-5.5-.23-.05-1.88-.42-4.13-.88s-5.42-1.05-9.06-1.61c-8.62-1.33-13-1.25-37.09-5.75C1026.43,257.17,995.84,249.15,995.84,249.15Z"/><path class="cls-12" d="M822,210.62c2,1.2,7.37-.68,8.65-4,1.14-2.88-1.13-6.31-2.17-7.72a17.37,17.37,0,0,0,8.23-2.68q-1.32-5.39-2.66-10.77a7.85,7.85,0,0,0,9-2.94,8,8,0,0,0-.7-9.51,104.76,104.76,0,0,0,21.8-6.79,18.3,18.3,0,0,1-9.94-5.31,156.46,156.46,0,0,1,31.1-7.1l-11.1-10q17.05-.91,34-3l-5.13-9.78a117.09,117.09,0,0,1,22.54.55c-.34-1.2-.68-2.41-1-3.61l23.11,7.66a12.54,12.54,0,0,0,1.25-8,20.83,20.83,0,0,0,13.18,6.71l2.74-5.19a97.43,97.43,0,0,0,19.94,8.87,3.34,3.34,0,0,0,2.61.08c.78-.45.88-1.91,0-2.11a76.68,76.68,0,0,1,35.4,11.16,11.59,11.59,0,0,0,.29-5.58,81.49,81.49,0,0,1,21.27,8.09c4.63,2.58,9.39,5.87,10.1,5s-2.25-4.11-3-5C1005.68,95.3,967.54,87.6,967.54,87.6c-41.42-8.67-83.84,7.75-109.92,34.34C824.92,155.28,815.25,206.6,822,210.62Z"/><path class="cls-29" d="M816.29,88.84a6.06,6.06,0,0,0-6.61-6.66.38.38,0,0,0-.26.46.39.39,0,0,0,.46.27,5.32,5.32,0,0,1,5.69,5.73.4.4,0,0,0,.26.47.38.38,0,0,0,.46-.27Z"/><path class="cls-29" d="M818.75,86.78a14.65,14.65,0,0,0-8.21-14.66c-.44-.2-.82.44-.38.65a13.94,13.94,0,0,1,7.84,14c0,.48.7.48.75,0Z"/><path class="cls-29" d="M820.32,85.83a55.71,55.71,0,0,1,.25-10.49c0-.48-.7-.47-.75,0a55.71,55.71,0,0,0-.25,10.49c0,.48.78.48.75,0Z"/><path class="cls-29" d="M808.77,97.3c-1.12,3.62-2.87,7-4.19,10.6S802,115.3,801,119.06c-2.13,7.54-3.8,15.21-5.46,22.87-.11.47.62.67.72.2,1.66-7.66,3.33-15.33,5.47-22.87,1.07-3.76,2.25-7.49,3.61-11.16s3.07-7,4.2-10.6c.14-.47-.58-.66-.73-.2Z"/><path class="cls-29" d="M816,90.2a123.37,123.37,0,0,0-6.61,41.87.38.38,0,0,0,.75,0,122.5,122.5,0,0,1,6.59-41.67c.15-.46-.57-.66-.73-.2Z"/><path class="cls-29" d="M817.54,88.75q-.28,15,.16,30c0,.48.77.48.75,0q-.45-15-.16-30a.38.38,0,0,0-.75,0Z"/><path class="cls-29" d="M827.78,80.5a6,6,0,0,1,4.47,3.6.39.39,0,0,0,.46.26.37.37,0,0,0,.26-.46,6.73,6.73,0,0,0-5-4.12c-.47-.09-.68.63-.2.72Z"/><path class="cls-29" d="M829.41,80.59a10.19,10.19,0,0,1,4.59.31c.46.14.66-.59.2-.73a11.23,11.23,0,0,0-5-.31.38.38,0,1,0,.2.73Z"/><path class="cls-29" d="M841.32,72.6c10.93-2.7,20.7-8.43,31.1-12.52,11.2-4.4,23-5.6,34.9-6.12,5.86-.26,12.86-1.31,18,2.2.4.27.78-.38.38-.65-4.28-2.93-9.66-2.65-14.61-2.46-6.19.24-12.38.51-18.53,1.27a81.94,81.94,0,0,0-17.22,3.88c-5.39,1.89-10.56,4.34-15.75,6.72a105.36,105.36,0,0,1-18.46,7,.38.38,0,0,0,.2.73Z"/><path class="cls-29" d="M1052.11,150.36c-1.4-6.39-6.53-10.8-9.94-16.09-3.93-6.11-5.79-13.23-8.82-19.77-.2-.44-.85-.06-.65.38,3,6.41,4.8,13.38,8.59,19.4,3.39,5.39,8.68,9.83,10.1,16.28.1.47.83.27.72-.2Z"/><path class="cls-29" d="M1010.68,110c-13.38-11.39-27.14-23-43.47-30a77.13,77.13,0,0,0-13.91-4.44c-.48-.1-.68.62-.2.72C970.38,80,985.27,90.08,998.82,101c3.83,3.1,7.59,6.28,11.33,9.47.37.31.9-.21.53-.53Z"/><path class="cls-29" d="M956.71,96.09a161,161,0,0,0-47.8-16.6c-4.64-.83-9.32-1.44-14-1.86-.48,0-.48.71,0,.75a160.19,160.19,0,0,1,48.79,12.27q6.45,2.76,12.64,6.08c.43.23.81-.42.38-.64Z"/><path class="cls-29" d="M905.56,102.54a319.6,319.6,0,0,0-51.3-6.12.38.38,0,0,0,0,.75,318.24,318.24,0,0,1,51.1,6.09c.47.1.67-.62.2-.72Z"/><path class="cls-29" d="M813.27,288.49a69.44,69.44,0,0,1-6.5-11.4c-.91-2-1.67-4.11-2.44-6.19a15.31,15.31,0,0,0-2.66-4.91c-.31-.36-.84.17-.53.53a17.71,17.71,0,0,1,2.92,5.82q1,2.79,2.23,5.49a69,69,0,0,0,6.33,11c.27.4.92,0,.65-.38Z"/><path class="cls-29" d="M810.94,258.62q-3.57-14.07-6.35-28.31c-.1-.47-.82-.27-.73.2q2.79,14.24,6.36,28.3c.11.47.84.27.72-.19Z"/><path class="cls-29" d="M786.16,218.62a104.17,104.17,0,0,1,1.3-39.38c.11-.47-.61-.67-.72-.2a105.25,105.25,0,0,0-1.3,39.78c.08.47.8.27.72-.2Z"/><path class="cls-29" d="M857.25,166.12c-3.56-.14-7.11-.1-10.67.11-.48,0-.48.78,0,.75,3.56-.21,7.11-.25,10.67-.11.48,0,.48-.73,0-.75Z"/><path class="cls-29" d="M867.91,153.52l1.24,0-.1-.74a49.93,49.93,0,0,0-9.09,2.85,16.77,16.77,0,0,1-4.55,1.23c-1.27.1-3.86,0-4.23-1.55a.38.38,0,0,0-.73.2c.32,1.34,1.8,1.83,3,2a10.76,10.76,0,0,0,4.84-.53c1.74-.54,3.38-1.3,5.08-1.93a35.06,35.06,0,0,1,5.87-1.57c.43-.08.3-.72-.1-.74l-1.24,0c-.49,0-.49.73,0,.75Z"/><path class="cls-29" d="M806.1,172.78c-.09-5.8-.35-11.63-.1-17.44.24-5.65,1.16-11.33,4-16.33.24-.42-.41-.8-.64-.38-2.72,4.86-3.72,10.35-4,15.85-.34,6.09,0,12.22.06,18.3a.38.38,0,0,0,.75,0Z"/><path class="cls-29" d="M869.25,82.66c-13.58,1.09-26.61-3.85-40-5.15-.48-.05-.48.7,0,.75,13.38,1.3,26.4,6.24,40,5.15.47,0,.48-.79,0-.75Z"/><path class="cls-10" d="M1013,204a24.45,24.45,0,0,1-11.87,9.45,50.32,50.32,0,0,1-8.12,2l-9.19,1.77c-.47.09-.27.81.2.72l9.67-1.86a43.11,43.11,0,0,0,8.59-2.25,25.38,25.38,0,0,0,11.37-9.42c.27-.4-.38-.78-.65-.38Z"/><path class="cls-10" d="M1008.23,212.15c-7.83,4.88-16.37,10-26,8.9-.48-.06-.48.7,0,.75,9.74,1.17,18.44-4.06,26.37-9,.41-.25,0-.9-.38-.64Z"/><path class="cls-10" d="M1063.26,205.46c.44,6.64,7.93,10.77,13.36,13,6.61,2.77,13.76,3.88,20.8,4.95.47.07.67-.65.2-.72-6.48-1-13-2-19.18-4.31a36.46,36.46,0,0,1-8.65-4.54c-2.8-2-5.54-4.78-5.78-8.42,0-.48-.78-.49-.75,0Z"/><path class="cls-10" d="M1068,218.12a52,52,0,0,0,35.6,14.66.38.38,0,0,0,0-.75,51.19,51.19,0,0,1-35.07-14.44.38.38,0,0,0-.53.53Z"/><path class="cls-10" d="M1005.27,505.28l-9.09.84c-2.86.27-5.74.64-8.62.68a16.28,16.28,0,0,1-8.13-1.89c-1.94-1-4-2.19-6.23-1.42-.45.15-.26.88.2.72,2.7-.92,5.15,1.28,7.51,2.26a17.33,17.33,0,0,0,7.1,1.07c5.75-.16,11.53-1,17.26-1.51.48,0,.48-.79,0-.75Z"/><path class="cls-10" d="M997.39,516.4c-7.64-1-14.72,2.75-22.21,3.44a28,28,0,0,1-20-6.1c-.37-.3-.9.23-.53.53a28.73,28.73,0,0,0,19.29,6.4c7.94-.36,15.38-4.53,23.42-3.52.48.06.48-.69,0-.75Z"/><path class="cls-10" d="M870.83,226.16c-6.42,11.82-13,24.16-13.72,37.87,0,.48.73.48.75,0,.72-13.57,7.26-25.8,13.61-37.49.23-.42-.41-.8-.64-.38Z"/><path class="cls-10" d="M855.56,246.8a40.81,40.81,0,0,0-3,31.66c.15.46.87.26.73-.2a40,40,0,0,1,2.88-31.08c.23-.43-.41-.81-.64-.38Z"/><path class="cls-10" d="M904.79,147c4.43.67,8.71-.49,13-1.62a63.86,63.86,0,0,1,14.29-2.07c9.81-.34,19.65-.34,29.46-.5l4.21-.07a8.42,8.42,0,0,1,3.95.53c1.61.8,2.75,2.25,4.64,2.39.48,0,.48-.71,0-.75-1.84-.13-3-1.8-4.66-2.47-1.82-.74-4-.45-5.91-.42l-14.6.24c-4.91.08-9.82.13-14.73.24A67.37,67.37,0,0,0,921,143.8c-5.26,1.17-10.51,3.29-16,2.47-.48-.08-.68.65-.2.72Z"/><path class="cls-10" d="M943.68,147.88a101.09,101.09,0,0,1,10.23-1.44c1.88-.08,3.06.78,4.67,1.53a9.68,9.68,0,0,0,3.72.78,28.9,28.9,0,0,1,4.74.32c1.58.34,3.08,1,4.64,1.41,2.38.68,5,.89,7.15-.61.39-.28,0-.93-.38-.65-2.69,1.9-6,.76-8.78-.17a17.86,17.86,0,0,0-4.09-.94c-1.62-.14-3.28,0-4.89-.26s-2.61-1.15-4-1.72a7.23,7.23,0,0,0-3.72-.36c-3.18.37-6.34.92-9.51,1.38-.48.07-.27.8.2.73Z"/><path class="cls-10" d="M980.3,147.21a27.34,27.34,0,0,1,8.6-1.93,35.12,35.12,0,0,1,9.3,1c6,1.26,11.88.71,17.94-.17.48-.07.28-.79-.19-.72a78.57,78.57,0,0,1-9.68,1,45.26,45.26,0,0,1-9.76-1.21,28.74,28.74,0,0,0-16.41,1.34c-.44.17-.25.9.2.72Z"/><path class="cls-10" d="M903.24,152a16.27,16.27,0,0,0,5.25-.42,25.8,25.8,0,0,0,5-2.12c1.93-.93,3.56-.59,5.45.23a11.09,11.09,0,0,0,4.23,1.23.38.38,0,0,0,0-.75c-3.19,0-5.74-2.95-9-1.79-1.73.6-3.22,1.69-5,2.24a15.45,15.45,0,0,1-5.89.63c-.48,0-.48.71,0,.75Z"/><path class="cls-10" d="M1010.88,149.64a12.84,12.84,0,0,1,5.3-1,29.5,29.5,0,0,1,5,1,7.84,7.84,0,0,0,4.21-.35c1.39-.46,3.47-1.12,4.42.48a.38.38,0,0,0,.65-.38,3.14,3.14,0,0,0-3.07-1.37c-2,.15-3.59,1.31-5.66,1a45.19,45.19,0,0,0-5.4-1.06,13.29,13.29,0,0,0-5.67,1c-.44.18-.25.9.2.72Z"/><path class="cls-10" d="M956,180.34a17.27,17.27,0,0,1-5.17-.33c-.47-.1-.67.62-.19.72a17.87,17.87,0,0,0,5.36.36c.48,0,.48-.79,0-.75Z"/><path class="cls-10" d="M1059.32,183.73a3.4,3.4,0,0,1-3.66-1.71c-.22-.43-.87-.05-.65.38a4.15,4.15,0,0,0,4.51,2c.47-.1.27-.82-.2-.72Z"/><path class="cls-29" d="M867.48,59.25q-1.5-5-2.85-10a.37.37,0,0,0-.72.2q1.35,5,2.84,10c.14.46.87.26.73-.2Z"/><path class="cls-29" d="M862.5,61.4a26.26,26.26,0,0,0-2.57-11.08c-1.46-3-3.58-6.44-6.95-7.53-.46-.15-.66.58-.2.73,3.25,1,5.27,4.54,6.63,7.46a25.36,25.36,0,0,1,2.34,10.42.38.38,0,0,0,.75,0Z"/><path class="cls-29" d="M801.87,103.58a17.11,17.11,0,0,1-6.28-3.64,24.26,24.26,0,0,1-4.93-4.88c-2.89-4.13-2.53-9.25-2.09-14,0-.48-.7-.47-.75,0-.46,5-.76,10.4,2.41,14.7a26.74,26.74,0,0,0,5.12,5,17.43,17.43,0,0,0,6.32,3.61.38.38,0,0,0,.2-.73Z"/><path class="cls-29" d="M806.11,98.91a11.23,11.23,0,0,1-8.33-3.49c-.34-.35-.87.19-.54.54a12,12,0,0,0,8.87,3.7.38.38,0,0,0,0-.75Z"/><path class="cls-29" d="M825.66,80.8a11.66,11.66,0,0,0-6.15-13.24c-.43-.2-.81.44-.38.65a10.9,10.9,0,0,1,5.81,12.39.37.37,0,0,0,.72.2Z"/><path class="cls-29" d="M836.4,74.48A19.25,19.25,0,0,0,832,59.78c-3.09-3.87-7.84-7-13-6.14-.47.08-.27.8.2.72,4.85-.78,9.36,2.31,12.25,6,3.1,3.9,5,9,4.22,14-.07.47.65.67.72.2Z"/><path class="cls-29" d="M796.81,38.51a6.43,6.43,0,0,0-4.41,3.55,11.22,11.22,0,0,0-.67,6.75c.08.48.8.27.72-.2a10.41,10.41,0,0,1,.6-6.17,5.75,5.75,0,0,1,4-3.21c.47-.09.27-.81-.2-.72Z"/><path class="cls-29" d="M822.85,33.48c5.72-.64,12.49-1.25,16.88,3.29a.38.38,0,0,0,.53-.53c-4.54-4.7-11.47-4.17-17.41-3.51-.47.05-.48.8,0,.75Z"/><path class="cls-29" d="M817.94,27l-7.5-.34c-.48,0-.48.73,0,.75l7.5.34c.48,0,.48-.73,0-.75Z"/><path class="cls-29" d="M804.73,32.31a8,8,0,0,0-5.84.59c-.43.22,0,.87.38.65a7.22,7.22,0,0,1,5.26-.51.38.38,0,0,0,.2-.73Z"/><path d="M817.28,650.84c.26,21.26-2.59,43,2,63.95,3.44,15.71,11.39,31.55,25.24,40.5,3.34,2.16,7.07,4.15,11.1,4.56a15.61,15.61,0,0,0,8.89-1.79c4.9-2.62,8.36-7.42,11-12.18,5.65-10.28,8.52-22,10.77-33.46a146.41,146.41,0,0,0,2-45.47q-.47-3.88-1.12-7.74c-.08-.48-.8-.27-.72.2a142.09,142.09,0,0,1-.28,49.87c-2,10.56-4.39,21.19-8.73,31.06-2.29,5.23-5.19,10.51-9.47,14.39a17.41,17.41,0,0,1-6.56,3.84,16.41,16.41,0,0,1-12-1.41c-14.88-7.29-23.94-22.54-28.22-38-5.43-19.64-3.4-40.36-3.11-60.47,0-2.6,0-5.2,0-7.81a.38.38,0,0,0-.75,0Z"/><path d="M1044.8,653.61a196.17,196.17,0,0,0-2.27,36.55c.61,16.5,3.55,33.9,12.46,48.09,3.73,5.94,8.67,11.07,15.16,13.91,7,3.09,15.49,4,22.88,1.65a21,21,0,0,0,9.85-6.39,26.19,26.19,0,0,0,4.89-10.54,104.3,104.3,0,0,0,2-12.93c.63-5.44,1.19-10.9,1.36-16.38.6-19-4.31-37.74-11.57-55.18-.68-1.65-1.39-3.29-2.11-4.92-.2-.44-.84-.06-.65.38,7.15,16.16,12.49,33.25,13.48,51,.57,10.2-.6,20.43-1.91,30.53-1.06,8.11-3.08,16.79-10.5,21.41-6.88,4.27-15.74,4.38-23.33,2.16A31.61,31.61,0,0,1,1058,741.28c-9.94-13.19-13.44-30.65-14.48-46.8a187.48,187.48,0,0,1,1.63-38c.13-.91.26-1.82.4-2.72.07-.47-.66-.68-.73-.2Z"/><path class="cls-13" d="M1135.46,243.47a146,146,0,0,0,32.53-1.19c3.36-.54,7.41-1.37,9.49-4.43s1.75-7.67-.87-10c-3.39-3.05-9.72-1.67-14.72-.65-8.55,1.73-20.82,3.95-37.25,6.07"/><path class="cls-30" d="M1085.25,173.63a47.46,47.46,0,0,0-12,.54c-3.93.86-7.77,2.87-10,6.22-2.48,3.7-2.66,8.43-2.62,12.88,0,3.31.18,6.74,1.7,9.67,2.62,5,8.52,7.3,14,8.8,11.38,3.12,23.57,4.79,34.91,1.52,1.61-.46,3.35-1.15,4.12-2.64a6.4,6.4,0,0,0,.54-2.25A37.32,37.32,0,0,0,1113,189a26.34,26.34,0,0,0-13.78-13.58c-4.4-1.75-9.22-2.08-14-2.39"/><path d="M1085.25,173.25c-5.72-.23-11.77-.42-17,2.3-4.59,2.38-7.08,6.55-7.75,11.6a48.35,48.35,0,0,0-.23,8.07,19.14,19.14,0,0,0,1.52,7.52c2,4.24,6.31,6.63,10.54,8.15a81.41,81.41,0,0,0,16.79,3.91,57.84,57.84,0,0,0,17.67-.13c2.47-.44,5.51-.87,7.58-2.41s1.93-3.9,2.05-6.09a37.25,37.25,0,0,0-2.7-16.57,27.93,27.93,0,0,0-10.23-12.41c-5.43-3.55-11.86-4.13-18.18-4.54-.48,0-.48.72,0,.75,5.39.35,11,.74,15.84,3.28a25.94,25.94,0,0,1,9.95,9.47,32.83,32.83,0,0,1,4.52,14.72,34.89,34.89,0,0,1-.21,8.17c-.47,2.87-3.18,3.6-5.65,4.23-10.84,2.74-22.27,1.11-32.91-1.77-4.23-1.15-8.74-2.59-11.95-5.72-3.83-3.74-4-9.11-3.92-14.13,0-5.7,1.18-11.37,6.3-14.67,5.32-3.44,11.89-3.22,18-3,.49,0,.49-.73,0-.75Z"/><path class="cls-30" d="M991.53,209.65c4.18.18,8.4.35,12.48-.6a16.49,16.49,0,0,0,10.38-6.88c2.57-4.09,2.76-9.32,2.71-14.25,0-3.65-.18-7.44-1.76-10.68-2.72-5.57-8.84-8.07-14.52-9.73-11.8-3.46-24.45-5.3-36.21-1.69-1.67.52-3.47,1.28-4.27,2.92a7.29,7.29,0,0,0-.56,2.5,43.69,43.69,0,0,0,2.94,21.42c2.86,6.64,7.92,12.32,14.28,15,4.57,1.93,9.57,2.3,14.47,2.64"/><path d="M991.53,210c6,.26,12.31.44,17.72-2.58,4.75-2.65,7.21-7.21,7.91-12.5a54.6,54.6,0,0,0,.27-9.22,21.9,21.9,0,0,0-1.59-8.28c-2-4.51-6.35-7.2-10.81-8.92a80.37,80.37,0,0,0-17.82-4.4,55.6,55.6,0,0,0-18.65.31c-2.43.49-5.44,1-7.39,2.67s-1.89,4.83-2,7.26a42.81,42.81,0,0,0,3,18,30.26,30.26,0,0,0,10.42,13.31c5.59,3.89,12.27,4.57,18.87,5,.48,0,.48-.72,0-.75-5.69-.4-11.54-.87-16.6-3.74a27.65,27.65,0,0,1-10.09-10.28,37.42,37.42,0,0,1-4.72-16,49.77,49.77,0,0,1,.05-8.28c.14-1.52.34-3,1.59-4.05a10.25,10.25,0,0,1,3.91-1.71c11.53-3.27,23.82-1.37,35.11,2,4.36,1.28,8.94,3,12.11,6.38,4,4.26,4,10.32,3.9,15.8-.09,6.08-1.23,12.3-6.59,16s-12.27,3.53-18.61,3.26c-.48,0-.48.73,0,.75Z"/><path d="M1017.12,185.86c14.45-.71,29.21-1.37,43.25,2.71a.37.37,0,0,0,.2-.72c-14.11-4.1-28.93-3.45-43.45-2.74-.48,0-.48.77,0,.75Z"/><path d="M960.31,184,902.41,191c-9.61,1.17-19.23,2.3-28.84,3.52a159.53,159.53,0,0,0-26.42,5.3,135.2,135.2,0,0,0-27.08,11.59.38.38,0,0,0,.38.65A139.67,139.67,0,0,1,871,195.64c19-2.55,38.12-4.68,57.17-7l32.17-3.91c.48-.06.48-.81,0-.75Z"/><path d="M1002,185.5a1.5,1.5,0,0,0,0-3,1.5,1.5,0,0,0,0,3Z"/><path d="M1103.77,191.71a1.5,1.5,0,0,0,0-3,1.5,1.5,0,0,0,0,3Z"/><path class="cls-14" d="M823.86,212.36,815.78,211c-2.87-.47-6.17-.83-8.34,1.1-3,2.69-1.44,8.14,2,10.29s7.79,2,11.84,1.73"/><path d="M824,212c-3.42-.56-6.87-1.3-10.32-1.63-2.52-.24-5.41,0-7.08,2.16a6.38,6.38,0,0,0-.54,6.24,8.62,8.62,0,0,0,5,4.86c3.24,1.3,6.85,1.11,10.27.91.48,0,.48-.78,0-.75-4.82.29-11.3.58-14.07-4.27a6.27,6.27,0,0,1-.43-6c1.29-2.36,4.19-2.66,6.6-2.46,3.47.29,7,1.06,10.38,1.63.48.08.68-.65.2-.73Z"/><path d="M821.05,215.1c-2.66-.88-6-1.73-8.5.12a3,3,0,0,0-1.19,3.38,2.75,2.75,0,0,0,1.36,1.35,14.65,14.65,0,0,0,2.2.93,15,15,0,0,0,5.24.75c.48,0,.48-.77,0-.75a14.56,14.56,0,0,1-5-.73,10.31,10.31,0,0,1-2.4-1.06,1.7,1.7,0,0,1-.66-2c.51-1.57,2.5-2.14,4-2.18a14.25,14.25,0,0,1,4.83.94c.46.16.66-.57.2-.72Z"/><ellipse class="cls-31" cx="817.12" cy="235.57" rx="10.1" ry="13.13"/></g><g id="Layer_2" data-name="Layer 2"><rect class="cls-32" x="1840.87" y="1061.6" width="44.13" height="98.26" rx="3"/><rect class="cls-32" x="46.29" y="1032.18" width="44.13" height="126.68" rx="3"/><rect class="cls-33" x="347.84" y="826.24" width="44.13" height="333.62" rx="3"/><rect class="cls-33" x="1554.04" y="806.6" width="44.13" height="325.26" rx="3"/><path class="cls-32" d="M345.91,767.4H1568.75l364.46,316.26h-1975Z"/><ellipse class="cls-34" cx="779.85" cy="825.44" rx="63.46" ry="36.42"/><ellipse class="cls-34" cx="779.85" cy="929.44" rx="63.46" ry="36.42"/><ellipse class="cls-34" cx="780.85" cy="1027.44" rx="63.46" ry="36.42"/><ellipse class="cls-34" cx="956.85" cy="1028.44" rx="63.46" ry="36.42"/><ellipse class="cls-34" cx="955.85" cy="927.44" rx="63.46" ry="36.42"/><ellipse class="cls-34" cx="955.85" cy="826.44" rx="63.46" ry="36.42"/><ellipse class="cls-34" cx="1138.85" cy="828.44" rx="63.46" ry="36.42"/><ellipse class="cls-34" cx="1138.85" cy="926.44" rx="63.46" ry="36.42"/><ellipse class="cls-34" cx="1139.85" cy="1030.44" rx="63.46" ry="36.42"/><ellipse cx="779.48" cy="822.29" rx="48.08" ry="26.5"/><ellipse cx="779.48" cy="926.29" rx="48.08" ry="26.5"/><ellipse cx="780.48" cy="1024.29" rx="48.08" ry="26.5"/><ellipse cx="956.48" cy="1025.29" rx="48.08" ry="26.5"/><ellipse cx="955.48" cy="924.29" rx="48.08" ry="26.5"/><ellipse cx="955.48" cy="823.29" rx="48.08" ry="26.5"/><ellipse cx="1138.48" cy="825.29" rx="48.08" ry="26.5"/><ellipse cx="1138.48" cy="923.29" rx="48.08" ry="26.5"/><ellipse cx="1139.48" cy="1027.29" rx="48.08" ry="26.5"/><polygon class="cls-35" points="556.07 948.39 482.23 1021.63 408.39 948.39 482.23 875.15 556.07 948.39"/><ellipse class="cls-35" cx="447.13" cy="912.89" rx="52.39" ry="53"/><ellipse class="cls-35" cx="518.09" cy="912.89" rx="51.34" ry="53"/><polygon class="cls-35" points="556.07 780.02 482.23 853.26 408.39 780.02 482.23 706.78 556.07 780.02"/><ellipse class="cls-35" cx="447.13" cy="744.52" rx="52.39" ry="53"/><ellipse class="cls-35" cx="518.09" cy="744.52" rx="51.34" ry="53"/><polygon class="cls-35" points="556.07 615.51 482.23 688.75 408.39 615.51 482.23 542.27 556.07 615.51"/><ellipse class="cls-35" cx="447.13" cy="580" rx="52.39" ry="53"/><ellipse class="cls-35" cx="518.09" cy="580" rx="51.34" ry="53"/><path class="cls-36" d="M937.71,1033.94a6.63,6.63,0,0,0,1.39,1.08c7.36,4.14,11.51-.17,19.47,1.91,7.22,1.89,9.76,7.67,14.53,5.66a8.27,8.27,0,0,0,3.18-2.6c5.92-7.37,5.33-22.57,5.17-35.6-.33-26.82,1.29-30.74-2.46-34.85-3.09-3.39-8.71-3.64-19.81-4.18a142.75,142.75,0,0,0-22.64.67l-3.2,4.07a.49.49,0,0,0-.14.35c.09.65,2.35.37,3.16.76,2.85,1.4-.53,17-2.15,30.58C931.3,1026.13,935.49,1031.76,937.71,1033.94Z"/><path class="cls-37" d="M978.66,992.49c.75-.44,1.59-.89,1.59-.89.47-.25.88-.45,1.19-.6,0,3.12,0,6.24,0,9.36l.13,12.27v4.89l-3.69,4.74C977.14,1005.4,977.64,993.1,978.66,992.49Z"/><path class="cls-38" d="M934.39,1038.61c2.89,2.86,4.85,1.51,20.86,3,14.44,1.34,16.21,2.76,18.9.55,4-3.26,3.45-9,4-33.28.56-25.53,1.4-30.79-2.46-35-3.09-3.41-8.71-3.65-19.81-4.2a140.16,140.16,0,0,0-22.64.68c-1.33,14.45-2,26.69-2.33,36C930,1030,931.1,1035.36,934.39,1038.61Z"/><path class="cls-39" d="M931.8,987.18l25,3.87,21.81,1.49q-.32,9.86-.62,19.72l-.12,10-22.6-2L930.45,1017l.28-8.13.23-5.45.39-7.87Z"/><path class="cls-37" d="M957.15,968.07l-.3-12.26-.59-6v-1.37l-.3-.67-.9-.7-2.68-.7-3.87-1.05-1.79-.7V943l1.79.55,3.87,1.4,3.28,1,.89.35.6.69.6.71v1.17l.3,5.84.29,4.9v8.41l-.59.35Z"/><path class="cls-40" d="M956.59,946.64l-.21,0-.13.05,0,0-.11.08,0,0h0L956,947l0,0a.37.37,0,0,0,0,.14.26.26,0,0,0,0,.15.31.31,0,0,0,.06.13.36.36,0,0,0,.11.1l.09,0a.34.34,0,0,0,.2,0l.09,0a.44.44,0,0,0,.13-.14l0,0-.06.07.06,0-.08.06.09,0-.09,0,.12,0h-.07a.23.23,0,0,0,.14,0,.24.24,0,0,0,.12-.07.35.35,0,0,0,.08-.13.32.32,0,0,0,0-.14v-.1a.34.34,0,0,0-.1-.16l-.07-.06a.34.34,0,0,0-.19-.05Z"/><path class="cls-40" d="M957.41,947.67a1.83,1.83,0,0,0-.92.24.37.37,0,0,0-.17.22.33.33,0,0,0,0,.29.4.4,0,0,0,.22.18.42.42,0,0,0,.29,0l.15-.08-.09,0a1.2,1.2,0,0,1,.37-.1h.11a.39.39,0,0,0,.27-.11.44.44,0,0,0,.11-.27.41.41,0,0,0-.11-.26.37.37,0,0,0-.27-.11Z"/><path class="cls-40" d="M957.1,947.11a1.79,1.79,0,0,0-.93.24.37.37,0,0,0,.09.68.37.37,0,0,0,.29,0l.15-.08-.09,0a1.27,1.27,0,0,1,.37-.1h.12a.43.43,0,0,0,.26-.11.37.37,0,0,0,0-.53.36.36,0,0,0-.26-.11Z"/><path class="cls-41" d="M968.29,1007.09c.46-4.81.69-7.21-.38-9.67a8.38,8.38,0,0,0-4.24-4.41,6.36,6.36,0,0,0-4.79,0c-1.08.49-1.64,1.19-2.72,1-.59-.08-.78-.33-2-1.09a14.83,14.83,0,0,0-3-1.59,7,7,0,0,0-3.71-.17,5.24,5.24,0,0,0-2.89,1.42,7.13,7.13,0,0,0-1.56,4.1c-.56,3.95-1,7.55.17,12.28.61,2.39,1.35,5.3,3.53,7.42s4.75,2.29,8.3,2.47a14.59,14.59,0,0,0,6.34-.8c1.93-.74,4-1.54,5.46-4C967.76,1012.52,967.94,1010.71,968.29,1007.09Z"/><path d="M955.85,995.27c-.37-.24.37-1.78,0-3.5a8.2,8.2,0,0,0-.38-1l-.7-1.64a1.29,1.29,0,0,1,.26.06c.9.31,1.29,1.68,1.4,2.08a6.44,6.44,0,0,1,.19,1c.11.91.29,2.41-.32,2.87C956.2,995.21,956,995.36,955.85,995.27Z"/><path class="cls-39" d="M966.6,997.17a20.17,20.17,0,0,1,.45,2.91,34.21,34.21,0,0,1,0,5c-.25,4.38-.35,5.6-.35,5.6a6.46,6.46,0,0,0,0,1.46c0,.19.12.3.15.2a4.17,4.17,0,0,0,0-.83c0-.11,0-.41.05-1.24.08-1.26.2-2.49.2-2.49.08-.72.22-2.16.26-3.73a30.83,30.83,0,0,0-.1-3.74A11.42,11.42,0,0,0,966.6,997.17Z"/><path class="cls-42" d="M781.17,828a7,7,0,0,0-3.22,1c-4,2.5-4,9.63-4,23.8,0,0,0,7.86.8,18.66.13,1.84.19,1.65.2,2.46,0,2-.25,3.08.41,3.7.13.13.28.33,1.2.41,2.37.19,1.34.31,3.42.41,1.87.09,3.14,0,3.42,0,.64,0,1.1-.1,2-.21a5.1,5.1,0,0,0,2.41-.61c1.32-1.17-.41-5.47-.6-5.95-1-2.45-1.06-7.79-1.21-18.46-.18-12.47,2.8-21.64-1.21-24.41A5.5,5.5,0,0,0,781.17,828Z"/><path class="cls-43" d="M777.55,876.44c-.2,0-.35-.31-.4-.41-1-2-1.21-17.64-1.21-17.64s0-2.81,1.21-15.59a.44.44,0,0,1,.11-.29.45.45,0,0,1,.17-.11c.06,0,.12,0,.12,0,.19,0-.64,12.49-.81,16A78.9,78.9,0,0,0,778,876,.47.47,0,0,1,777.55,876.44Z"/><rect class="cls-44" x="764.27" y="864.54" width="33.4" height="63.79" rx="7.05"/><rect class="cls-44" x="764.27" y="911.72" width="33.4" height="35.28" rx="13"/><rect class="cls-45" x="790.43" y="871.92" width="1.61" height="55.38" rx="0.78"/><rect class="cls-39" x="1132.93" y="848.4" width="11.15" height="94.34"/><rect class="cls-46" x="1132.93" y="916.41" width="11.15" height="26.33"/><path class="cls-47" d="M1134.05,924.42a1.5,1.5,0,0,0,0-3,1.5,1.5,0,0,0,0,3Z"/><path class="cls-47" d="M1138.86,923.6a1.5,1.5,0,0,0,0-3,1.5,1.5,0,0,0,0,3Z"/><path class="cls-47" d="M1141.86,925.83a1.5,1.5,0,0,0,0-3,1.5,1.5,0,0,0,0,3Z"/><path class="cls-47" d="M1136.18,931.32a1.5,1.5,0,0,0,0-3,1.5,1.5,0,0,0,0,3Z"/><path class="cls-47" d="M1139.18,931.32a1.5,1.5,0,0,0,0-3,1.5,1.5,0,0,0,0,3Z"/><path class="cls-47" d="M1142.41,937.25a1.5,1.5,0,0,0,0-3,1.5,1.5,0,0,0,0,3Z"/><path class="cls-47" d="M1135.63,937.25a1.5,1.5,0,0,0,0-3,1.5,1.5,0,0,0,0,3Z"/><path class="cls-47" d="M1140.2,940.44a1.5,1.5,0,0,0,0-3,1.5,1.5,0,0,0,0,3Z"/><path class="cls-47" d="M1136.81,942a1.5,1.5,0,0,0,0-3,1.5,1.5,0,0,0,0,3Z"/><path class="cls-48" d="M1134.31,847.12a2.16,2.16,0,0,0-1,.75c-.2.26-.45.54-.35.76s.71.26,1.2.25c.8,0,.81-.18,1.55-.16.2,0,.7,0,1.2.08h.17c.44,0,.83.07,1,.07.8,0,.78,0,1.37,0,.4,0,.39.08.86.12a10.73,10.73,0,0,0,1.2,0,6.32,6.32,0,0,0,1.72-.17c.34-.09.84-.24.86-.48s-.46-.46-.86-.65-.57-.15-1.37-.44a3.1,3.1,0,0,0-.31-.09,2.51,2.51,0,0,0-.72,0,4.55,4.55,0,0,1-.69,0c-.23,0-.42,0-.45,0a3.57,3.57,0,0,0-.92-.14c-.67,0-.7.17-1.38.19a13.28,13.28,0,0,1-1.54-.19A3.49,3.49,0,0,0,1134.31,847.12Z"/><path class="cls-35" d="M1135.44,849.27a1.5,1.5,0,0,0,0-3,1.5,1.5,0,0,0,0,3Z"/><path class="cls-35" d="M1136.61,849.81a1.5,1.5,0,0,0,0-3,1.5,1.5,0,0,0,0,3Z"/><path class="cls-35" d="M1137.78,849.38a1.5,1.5,0,0,0,0-3,1.5,1.5,0,0,0,0,3Z"/><path class="cls-35" d="M1139.34,849.4a1.5,1.5,0,0,0,0-3,1.5,1.5,0,0,0,0,3Z"/><path class="cls-35" d="M1140.13,850a1.5,1.5,0,0,0,0-3,1.5,1.5,0,0,0,0,3Z"/><path class="cls-35" d="M1141.18,849.37a1.5,1.5,0,0,0,0-3,1.5,1.5,0,0,0,0,3Z"/><path class="cls-35" d="M1141.62,850.08a1.5,1.5,0,0,0,0-3,1.5,1.5,0,0,0,0,3Z"/><path class="cls-35" d="M1138.34,850.07a1.5,1.5,0,0,0,0-3,1.5,1.5,0,0,0,0,3Z"/><path class="cls-49" d="M1140.86,850a1.5,1.5,0,0,0,0-3,1.5,1.5,0,0,0,0,3Z"/><path class="cls-49" d="M1141.82,849.65a1.5,1.5,0,0,0,0-3,1.5,1.5,0,0,0,0,3Z"/><path class="cls-49" d="M1139.84,849.43a1.5,1.5,0,0,0,0-3,1.5,1.5,0,0,0,0,3Z"/><path class="cls-49" d="M1139.37,850a1.5,1.5,0,0,0,0-3,1.5,1.5,0,0,0,0,3Z"/><path class="cls-49" d="M1138.28,849.48a1.5,1.5,0,0,0,0-3,1.5,1.5,0,0,0,0,3Z"/><path class="cls-49" d="M1137.69,850a1.5,1.5,0,0,0,0-3,1.5,1.5,0,0,0,0,3Z"/><path class="cls-49" d="M1136.72,849.21a1.5,1.5,0,0,0,0-3,1.5,1.5,0,0,0,0,3Z"/><path class="cls-49" d="M1135.91,849.83a1.5,1.5,0,0,0,0-3,1.5,1.5,0,0,0,0,3Z"/><path class="cls-49" d="M1135,849.75a1.5,1.5,0,0,0,0-3,1.5,1.5,0,0,0,0,3Z"/><path class="cls-49" d="M1136.11,848.93a1.5,1.5,0,0,0,0-3,1.5,1.5,0,0,0,0,3Z"/><path class="cls-49" d="M1136.63,848.74a1.5,1.5,0,0,0,0-3,1.5,1.5,0,0,0,0,3Z"/><path class="cls-49" d="M1137.28,848.85a1.5,1.5,0,0,0,0-3,1.5,1.5,0,0,0,0,3Z"/><path class="cls-49" d="M1138.11,848.72a1.5,1.5,0,0,0,0-3,1.5,1.5,0,0,0,0,3Z"/><path class="cls-49" d="M1138.45,848.78a1.5,1.5,0,0,0,0-3,1.5,1.5,0,0,0,0,3Z"/><path class="cls-49" d="M1139.35,849a1.5,1.5,0,0,0,0-3,1.5,1.5,0,0,0,0,3Z"/><path class="cls-49" d="M1139.66,848.73a1.5,1.5,0,0,0,0-3,1.5,1.5,0,0,0,0,3Z"/><path class="cls-49" d="M1140.8,849a1.5,1.5,0,0,0,0-3,1.5,1.5,0,0,0,0,3Z"/><path class="cls-49" d="M1140.43,849.47a1.5,1.5,0,0,0,0-3,1.5,1.5,0,0,0,0,3Z"/><path class="cls-49" d="M1141.43,848.86a1.5,1.5,0,0,0,0-3,1.5,1.5,0,0,0,0,3Z"/><path class="cls-49" d="M1142.12,849.42a1.5,1.5,0,0,0,0-3,1.5,1.5,0,0,0,0,3Z"/><path class="cls-49" d="M1140.15,848.68a1.5,1.5,0,0,0,0-3,1.5,1.5,0,0,0,0,3Z"/><path class="cls-49" d="M1138.34,848.66a1.5,1.5,0,0,0,0-3,1.5,1.5,0,0,0,0,3Z"/><path class="cls-49" d="M1136,848.68a1.5,1.5,0,0,0,0-3,1.5,1.5,0,0,0,0,3Z"/><path class="cls-49" d="M1134.61,848.53a1.5,1.5,0,0,0,0-3,1.5,1.5,0,0,0,0,3Z"/><path class="cls-49" d="M1134.06,848.91a1.5,1.5,0,0,0,0-3,1.5,1.5,0,0,0,0,3Z"/><path class="cls-49" d="M1134.4,849.14a1.5,1.5,0,0,0,0-3,1.5,1.5,0,0,0,0,3Z"/><path class="cls-49" d="M1135.43,848.74a1.5,1.5,0,0,0,0-3,1.5,1.5,0,0,0,0,3Z"/><path class="cls-49" d="M1135,848.44a1.5,1.5,0,0,0,0-3,1.5,1.5,0,0,0,0,3Z"/><path class="cls-49" d="M1134.94,849.68a1.5,1.5,0,0,0,0-3,1.5,1.5,0,0,0,0,3Z"/><path class="cls-49" d="M1134.9,849.06a1.5,1.5,0,0,0,0-3,1.5,1.5,0,0,0,0,3Z"/><path class="cls-49" d="M1139.93,849.22a1.5,1.5,0,0,0,0-3,1.5,1.5,0,0,0,0,3Z"/><path class="cls-49" d="M1138.75,849.15a1.5,1.5,0,0,0,0-3,1.5,1.5,0,0,0,0,3Z"/><path class="cls-49" d="M1137.6,849a1.5,1.5,0,0,0,0-3,1.5,1.5,0,0,0,0,3Z"/><path class="cls-49" d="M1137.33,848.57a1.5,1.5,0,0,0,0-3,1.5,1.5,0,0,0,0,3Z"/><path class="cls-49" d="M1142.37,849a1.5,1.5,0,0,0,0-3,1.5,1.5,0,0,0,0,3Z"/><path class="cls-49" d="M1140.87,848.92a1.5,1.5,0,0,0,0-3,1.5,1.5,0,0,0,0,3Z"/><path class="cls-49" d="M1138.92,848.78a1.5,1.5,0,0,0,0-3,1.5,1.5,0,0,0,0,3Z"/><path class="cls-50" d="M1141.68,849.23a1.5,1.5,0,0,0,0-3,1.5,1.5,0,0,0,0,3Z"/><path class="cls-50" d="M1141.86,848.84a1.5,1.5,0,0,0,0-3,1.5,1.5,0,0,0,0,3Z"/><path class="cls-50" d="M1141.09,848.84a1.5,1.5,0,0,0,0-3,1.5,1.5,0,0,0,0,3Z"/><path class="cls-50" d="M1140.64,849.64a1.5,1.5,0,0,0,0-3,1.5,1.5,0,0,0,0,3Z"/><path class="cls-50" d="M1140.28,849a1.5,1.5,0,0,0,0-3,1.5,1.5,0,0,0,0,3Z"/><path class="cls-50" d="M1140.47,848.77a1.5,1.5,0,0,0,0-3,1.5,1.5,0,0,0,0,3Z"/><path class="cls-50" d="M1139.39,848.77a1.5,1.5,0,0,0,0-3,1.5,1.5,0,0,0,0,3Z"/><path class="cls-50" d="M1139.38,849.17a1.5,1.5,0,0,0,0-3,1.5,1.5,0,0,0,0,3Z"/><path class="cls-50" d="M1138.53,849.11a1.5,1.5,0,0,0,0-3,1.5,1.5,0,0,0,0,3Z"/><path class="cls-50" d="M1137.86,849a1.5,1.5,0,0,0,0-3,1.5,1.5,0,0,0,0,3Z"/><path class="cls-50" d="M1137,849.09a1.5,1.5,0,0,0,0-3,1.5,1.5,0,0,0,0,3Z"/><path class="cls-50" d="M1136.93,848.62a1.5,1.5,0,0,0,0-3,1.5,1.5,0,0,0,0,3Z"/><path class="cls-50" d="M1136.33,848.83a1.5,1.5,0,0,0,0-3,1.5,1.5,0,0,0,0,3Z"/><path class="cls-50" d="M1136.29,849.5a1.5,1.5,0,0,0,0-3,1.5,1.5,0,0,0,0,3Z"/><path class="cls-50" d="M1136,848.85a1.5,1.5,0,0,0,0-3,1.5,1.5,0,0,0,0,3Z"/><path class="cls-50" d="M1135.45,849.14a1.5,1.5,0,0,0,0-3,1.5,1.5,0,0,0,0,3Z"/><path class="cls-50" d="M1135.21,848.79a1.5,1.5,0,0,0,0-3,1.5,1.5,0,0,0,0,3Z"/><path class="cls-50" d="M1134.4,848.88a1.5,1.5,0,0,0,0-3,1.5,1.5,0,0,0,0,3Z"/><path class="cls-50" d="M1134.49,849.71a1.5,1.5,0,0,0,0-3,1.5,1.5,0,0,0,0,3Z"/><path class="cls-50" d="M1134.88,849.34a1.5,1.5,0,0,0,0-3,1.5,1.5,0,0,0,0,3Z"/><path class="cls-50" d="M1135.53,849.87a1.5,1.5,0,0,0,0-3,1.5,1.5,0,0,0,0,3Z"/><path class="cls-50" d="M1137.25,849.91a1.5,1.5,0,0,0,0-3,1.5,1.5,0,0,0,0,3Z"/><path class="cls-50" d="M1137.69,849.55a1.5,1.5,0,0,0,0-3,1.5,1.5,0,0,0,0,3Z"/><path class="cls-50" d="M1139.4,849.78a1.5,1.5,0,0,0,0-3,1.5,1.5,0,0,0,0,3Z"/><path class="cls-50" d="M1138.76,849.8a1.5,1.5,0,0,0,0-3,1.5,1.5,0,0,0,0,3Z"/><path class="cls-50" d="M1138.59,848.53a1.5,1.5,0,0,0,0-3,1.5,1.5,0,0,0,0,3Z"/><path class="cls-50" d="M1141.28,850.09a1.5,1.5,0,0,0,0-3,1.5,1.5,0,0,0,0,3Z"/><path class="cls-50" d="M1142.2,850a1.5,1.5,0,0,0,0-3,1.5,1.5,0,0,0,0,3Z"/></g></svg>
